<svg width="77" height="72" viewBox="0 0 77 72" fill="none" xmlns="http://www.w3.org/2000/svg">
<path d="M76.3849 29.7188L76.385 29.7187L66.6632 23.2735V1.73068C66.6632 1.0343 66.0987 0.469727 65.4023 0.469727H12.3598C11.6634 0.469727 11.0988 1.0343 11.0988 1.73068V23.275L1.37869 29.7187L1.37886 29.719C1.0389 29.9448 0.814453 30.3308 0.814453 30.7696V69.8189C0.814453 70.5153 1.37902 71.0799 2.07541 71.0799H75.6883C76.3847 71.0799 76.9493 70.5153 76.9493 69.8189V30.7696C76.9493 30.3308 76.7248 29.9448 76.3849 29.7188ZM11.0988 34.1287L7.14361 32.0306H11.0988V34.1287ZM3.33636 32.8659L32.3341 48.2478L3.33636 67.4693V32.8659ZM38.8814 46.9332L71.5043 68.558H6.25859L38.8814 46.9332ZM45.4291 48.248L74.4272 32.8659V67.47L45.4291 48.248ZM66.6632 32.0306H70.6203L66.6632 34.1295V32.0306ZM71.5043 29.5087H66.6632V26.2991L71.5043 29.5087ZM64.1413 2.99164V35.4673L43.0368 46.6622L39.5779 44.3695C39.1557 44.0895 38.6068 44.0895 38.1846 44.3695L34.7263 46.6619L13.6207 35.4664V2.99164H64.1413ZM11.0988 29.5087H6.25976L11.0988 26.3008V29.5087Z" fill="#FF8400"/>
<path d="M38.8766 33.6312H48.9229C49.6192 33.6312 50.1838 33.0667 50.1838 32.3703C50.1838 31.6739 49.6192 31.1093 48.9229 31.1093H38.8766C34.0323 31.1093 30.0912 27.1683 30.0912 22.324V21.9519C30.0912 17.1077 34.0323 13.1666 38.8766 13.1666C43.7208 13.1666 47.6619 17.1077 47.6619 21.9519V22.8822C47.6619 23.9308 46.8088 24.784 45.76 24.784C44.7113 24.784 43.8582 23.931 43.8582 22.8822V21.1148C43.8582 18.1114 41.4148 15.6678 38.4114 15.6678C35.4079 15.6678 32.9645 18.1112 32.9645 21.1148C32.9645 24.1183 35.4079 26.5617 38.4114 26.5617C39.7848 26.5617 41.0402 26.0497 41.9992 25.2079C42.78 26.466 44.1734 27.3058 45.76 27.3058C48.1992 27.3058 50.1838 25.3214 50.1838 22.882V21.9518C50.1838 15.7169 45.1114 10.6445 38.8766 10.6445C32.6417 10.6445 27.5693 15.7169 27.5693 21.9518V22.3238C27.5693 28.5588 32.6417 33.6312 38.8766 33.6312ZM38.4114 24.0397C36.7985 24.0397 35.4865 22.7277 35.4865 21.1148C35.4865 19.502 36.7987 18.1898 38.4114 18.1898C40.024 18.1898 41.3363 19.502 41.3363 21.1148C41.3363 22.7277 40.0242 24.0397 38.4114 24.0397Z" fill="#FF8400"/>
</svg>
