<?xml version="1.0" encoding="UTF-8"?><!DOCTYPE svg PUBLIC "-//W3C//DTD SVG 1.1//EN" "http://www.w3.org/Graphics/SVG/1.1/DTD/svg11.dtd"><svg xmlns="http://www.w3.org/2000/svg"><defs>
        <clipPath id="a">
            <path d="M0 0h14v14H0z"/>
        </clipPath>
    </defs><symbol id="icon-arrow-left-sm" viewBox="0 0 7 12">
    <path fill-rule="evenodd" clip-rule="evenodd" d="M5.373.277a.958.958 0 0 1 1.348 0 .94.94 0 0 1 0 1.337L2.3 6l4.421 4.386a.94.94 0 0 1 0 1.337.958.958 0 0 1-1.348 0L.28 6.668a.94.94 0 0 1 0-1.337L5.373.277z"/>
</symbol><symbol id="icon-arrow-left" viewBox="0 0 24.6 17.9">
    <style>
        .st0{fill:#ff8400}
    </style>
    <path class="st0" d="M8.7 17.7c.4.4 1 .4 1.3 0 .4-.3.4-.9 0-1.3L3.2 9.9h20.4c.5 0 .9-.4.9-.9s-.4-.9-.9-.9H3.2L10 1.6c.4-.4.4-.9 0-1.3S9-.1 8.7.3l-8.4 8c-.4.3-.4.9 0 1.3l8.4 8.1z"/>
</symbol><symbol id="icon-arrow-next" viewBox="0 0 47 19">
    <path fill-rule="evenodd" clip-rule="evenodd" d="M37.892.73a.966.966 0 0 0-1.34 0 .881.881 0 0 0 0 1.272l6.79 6.517H.937c-.522 0-.937.399-.937.9s.415.913.937.913h42.405l-6.79 6.504a.896.896 0 0 0 0 1.286c.375.36.979.36 1.34 0l8.397-8.06a.86.86 0 0 0 0-1.272L37.892.73z"/>
</symbol><symbol id="icon-arrow-prev" viewBox="0 0 47 19">
    <path fill-rule="evenodd" clip-rule="evenodd" d="M8.678 18.252c.362.36.964.36 1.339 0a.88.88 0 0 0 0-1.272l-6.79-6.517h42.405c.522 0 .937-.399.937-.9a.924.924 0 0 0-.937-.913H3.227l6.79-6.504a.896.896 0 0 0 0-1.286.966.966 0 0 0-1.34 0L.282 8.92a.86.86 0 0 0 0 1.272l8.397 8.06z"/>
</symbol><symbol id="icon-arrow-right" viewBox="0 0 24.6 17.9">
    <style>
        .st0{fill:#ff8400}
    </style>
    <path class="st0" d="M15.9.3c-.4-.4-1-.4-1.3 0-.4.3-.4.9 0 1.3l6.8 6.5H.9c-.5 0-.9.4-.9.9s.4.9.9.9h20.4l-6.8 6.5c-.4.4-.4.9 0 1.3s1 .4 1.3 0l8.4-8.1c.4-.3.4-.9 0-1.3l-8.3-8z"/>
</symbol><symbol id="icon-arrow-rigth-sm" viewBox="0 0 7 12">
    <path fill-rule="evenodd" clip-rule="evenodd" d="M1.627 11.723a.958.958 0 0 1-1.348 0 .94.94 0 0 1 0-1.337L4.7 6 .279 1.614a.94.94 0 0 1 0-1.337.958.958 0 0 1 1.348 0L6.72 5.332a.94.94 0 0 1 0 1.337l-5.094 5.054z"/>
</symbol><symbol id="icon-basket" viewBox="0 0 19 22">
    <path fill-rule="evenodd" clip-rule="evenodd" d="M6.135 7.192H7.48v10.77H6.135V7.192z"/>
    <path fill-rule="evenodd" clip-rule="evenodd" d="M8.828 7.192h1.346v10.77H8.828V7.192z"/>
    <path fill-rule="evenodd" clip-rule="evenodd" d="M11.519 7.192h1.346v10.77h-1.346V7.192z"/>
    <path fill-rule="evenodd" clip-rule="evenodd" d="M.75 3.154h17.5V4.5H.75V3.154z"/>
    <path fill-rule="evenodd" clip-rule="evenodd" d="M12.82 3.827h-1.253V2.48a.721.721 0 0 0-.72-.72H8.155a.721.721 0 0 0-.72.72v1.347H6.183V2.48c0-1.087.885-1.972 1.972-1.972h2.692c1.087 0 1.972.885 1.972 1.972v1.347z"/>
    <path fill-rule="evenodd" clip-rule="evenodd" d="M13.539 22H5.462c-1.086 0-2.037-.881-2.12-1.964L2.099 3.879l1.342-.104 1.243 16.158c.03.384.393.72.778.72h8.077a.815.815 0 0 0 .778-.72L15.56 3.775l1.342.104-1.243 16.157C15.576 21.119 14.625 22 13.54 22z"/>
</symbol><symbol id="icon-boy" viewBox="0 0 58 65">
    <path d="M16.577 37.182a2.2 2.2 0 0 1 1.565.65c.237.236.547.354.857.354a1.211 1.211 0 0 0 .857-2.068 4.606 4.606 0 0 0-3.28-1.358 4.606 4.606 0 0 0-3.278 1.358 1.211 1.211 0 1 0 1.713 1.713 2.199 2.199 0 0 1 1.566-.649z"/>
    <path d="M38.384 36.119a1.211 1.211 0 0 0 1.713 1.713 2.217 2.217 0 0 1 3.131 0 1.208 1.208 0 0 0 1.714 0 1.211 1.211 0 0 0 0-1.713 4.642 4.642 0 0 0-6.558 0z"/>
    <path d="M41.656 48.069c-6.912 6.912-18.16 6.912-25.072 0a1.211 1.211 0 1 0-1.713 1.713c3.928 3.928 9.089 5.893 14.25 5.893 5.16 0 10.32-1.965 14.248-5.893a1.211 1.211 0 1 0-1.713-1.713z"/>
    <path d="M57.703 38.488c0-3.29-2.38-6.034-5.507-6.606V11.616a7.807 7.807 0 0 0-3.499-6.52 7.805 7.805 0 0 0-6.921-.86L34.17 1.654C28.326-.33 22.175-.533 16.381 1.065 8.796 3.158 4.448 7.584 3.776 13.875a9.195 9.195 0 0 0-1.386 2.612l-.59 1.746a2.072 2.072 0 0 0 .869 2.451 2.072 2.072 0 0 0 2.587-.266c.243-.235.508-.433.788-.599v12.063c-3.128.572-5.507 3.315-5.507 6.606 0 3.422 2.573 6.253 5.886 6.665a23.262 23.262 0 0 0 6.36 12.221c4.364 4.427 10.166 6.865 16.337 6.865h.002c6.163 0 11.957-2.4 16.315-6.759 3.404-3.404 5.614-7.684 6.418-12.332 3.294-.429 5.848-3.25 5.848-6.66zM47.358 7.115a5.319 5.319 0 0 1 2.415 4.501v15.852c-3.76-.584-6.647-3.843-6.647-7.764l-.1-13.32a5.304 5.304 0 0 1 4.332.731zM4.45 17.96l.235-.696a6.793 6.793 0 0 1 3.758-4.066 6.793 6.793 0 0 1 5.535.087c3.668 1.708 8.103.784 10.784-2.246l.3-.34a1.211 1.211 0 1 0-1.815-1.605l-.3.34a6.825 6.825 0 0 1-7.946 1.654 9.219 9.219 0 0 0-7.512-.117 9.21 9.21 0 0 0-.641.308C8.256 7.524 11.664 4.88 17.026 3.4c5.324-1.47 10.983-1.28 16.366.547l7.211 2.448.095 6.26a21.293 21.293 0 0 1-13.23 8.336 21.298 21.298 0 0 1-15.697-3.1 6.564 6.564 0 0 0-7.321.067zM2.96 38.49a4.302 4.302 0 0 1 3.084-4.121v6.566c0 .567.02 1.131.06 1.692a4.303 4.303 0 0 1-3.144-4.138zm40.764 17.278a20.519 20.519 0 0 1-14.602 6.05h-.002c-5.517 0-10.707-2.182-14.612-6.144a20.872 20.872 0 0 1-6.042-14.74V19.249a4.185 4.185 0 0 1 1.98.673 23.709 23.709 0 0 0 17.474 3.451 23.692 23.692 0 0 0 12.783-6.956v3.288c0 5.259 3.97 9.605 9.07 10.207v11.252a20.518 20.518 0 0 1-6.049 14.604zm8.425-13.145c.03-.484.047-.97.047-1.459v-6.795a4.302 4.302 0 0 1 3.084 4.12 4.302 4.302 0 0 1-3.13 4.134z"/>
</symbol><symbol id="icon-close" viewBox="0 0 17 18">
    <path fill-rule="evenodd" clip-rule="evenodd" d="M0 16.23L15.556.675l1.054 1.053L1.053 17.284 0 16.23z"/>
    <path fill-rule="evenodd" clip-rule="evenodd" d="M1.055.44L16.61 15.996l-1.053 1.054L0 1.493 1.055.44z"/>
</symbol><symbol id="icon-facebook" viewBox="0 0 11 21">
    <path fill-rule="evenodd" clip-rule="evenodd" d="M7.26 21H2.42v-9.916H0V7.262h2.42V4.97C2.42 1.855 3.784 0 7.665 0h3.231v3.821H8.878c-1.51 0-1.611.534-1.611 1.53L7.26 7.263h3.659l-.429 3.822h-3.23V21z"/>
</symbol><symbol id="icon-filter" viewBox="-4 0 393 393.99003">
    <path d="M368.313 0H17.05A16.5 16.5 0 0 0 2.344 8.96a16.732 16.732 0 0 0 1.3 17.415l128.688 181.281c.043.063.09.121.133.184a36.769 36.769 0 0 1 7.219 21.816v147.797a16.429 16.429 0 0 0 16.433 16.535c2.227 0 4.426-.445 6.48-1.297l72.313-27.574c6.48-1.976 10.781-8.09 10.781-15.453V229.656a36.774 36.774 0 0 1 7.215-21.816c.043-.063.09-.121.133-.184L381.723 26.367a16.717 16.717 0 0 0 1.3-17.406A16.502 16.502 0 0 0 368.313 0zM236.78 195.992a56.931 56.931 0 0 0-11.097 33.664v117.578l-66 25.164V229.656a56.909 56.909 0 0 0-11.102-33.664L23.648 20h338.07zm0 0"/>
</symbol><symbol id="icon-filters" viewBox="0 0 14 14">
    <g clip-path="url(#a)">
        <mask id="b">
            <path d="M13.248 0H.766a.586.586 0 0 0-.523.318.595.595 0 0 0 .047.62l4.572 6.44.005.007c.166.225.256.496.257.776v5.251a.584.584 0 0 0 .814.542l2.57-.98a.556.556 0 0 0 .383-.55V8.162c0-.28.09-.551.256-.776l.005-.006L13.724.937a.594.594 0 0 0 .046-.619.586.586 0 0 0-.522-.318zM8.574 6.964a2.023 2.023 0 0 0-.394 1.197v4.178l-2.346.894V8.16c0-.431-.139-.85-.394-1.197L1 .711h12.013l-4.44 6.253z"/>
        </mask>
        <path d="M.766 0L.762 2h.004V0zM.243.318l1.78.915L.242.317zm.047.62L1.92-.222l-.007-.01L.29.938zm4.572 6.44L6.51 6.247l-.008-.013-.009-.012-1.63 1.158zm.005.007L3.22 8.518l.02.03.021.028 1.607-1.19zm.257.776h2v-.004l-2 .004zm0 5.251l2 .013v-.013h-2zm.17.416l1.418-1.41-1.419 1.41zm.644.126l-.713-1.869-.026.01-.027.011.766 1.848zm2.57-.98l-.584-1.913-.065.02-.064.024.712 1.869zm.383-4.813l-2-.003v.003h2zm.256-.776l1.607 1.19.021-.028.02-.029-1.648-1.133zm.005-.006L7.52 6.22l-.009.012-.008.013 1.648 1.133zM13.724.937L12.101-.231l-.008.01L13.724.937zm.046-.619l-1.778.914L13.77.319zM8.574 6.964l1.61 1.187.01-.014.01-.015-1.63-1.158zM8.18 8.161l-2-.004v.004h2zm0 4.178l.712 1.868 1.288-.49v-1.378h-2zm-2.346.894h-2v2.903l2.713-1.034-.713-1.87zm0-5.072h2v-.004l-2 .004zM5.44 6.964L3.809 8.122l.01.015.011.014 1.61-1.187zM1 .711v-2h-3.872L-.63 1.868 1 .711zm12.013 0l1.631 1.157 2.242-3.157h-3.873v2zM13.248-2H.766v4h12.482v-4zM.77-2A2.586 2.586 0 0 0-1.535-.596l3.557 1.828A1.414 1.414 0 0 1 .762 2L.77-2zM-1.535-.596a2.595 2.595 0 0 0 .2 2.7L1.914-.23c.308.427.351.992.11 1.463L-1.536-.596zm.194 2.69l4.573 6.443L6.493 6.22 1.92-.22-1.34 2.095zm4.555 6.418a2.094 2.094 0 0 0 .041.057l.003.003v.002a.528.528 0 0 1-.009-.013 1.98 1.98 0 0 1-.03-.043l3.296-2.266a2.048 2.048 0 0 0-.043-.06L6.47 6.19a.146.146 0 0 1 .01.013l.03.043-3.297 2.266zm.046.064a.693.693 0 0 1-.136-.411l4-.008a3.307 3.307 0 0 0-.65-1.962L3.26 8.575zm-.136-.415v5.251h4V8.161h-4zm0 5.239c-.005.688.266 1.35.75 1.837l2.838-2.82c.266.268.414.63.412 1.008l-4-.025zm.75 1.837A2.584 2.584 0 0 0 5.709 16v-4c.376 0 .738.15 1.004.418l-2.837 2.82zM5.709 16c.346 0 .684-.07.996-.198l-1.532-3.696A1.4 1.4 0 0 1 5.708 12v4zm.942-.177l2.57-.98-1.425-3.738-2.57.98 1.425 3.738zm2.44-.936c1.157-.353 1.8-1.412 1.8-2.462h-4c0-.527.338-1.152 1.034-1.364l1.167 3.826zm1.8-2.462V8.16h-4v4.264h4zm0-4.261a.693.693 0 0 1-.136.411L7.54 6.195a3.307 3.307 0 0 0-.648 1.963l4 .006zm-.095.354a2.04 2.04 0 0 1-.03.043l-.008.01a.028.028 0 0 1-.002.003l.001-.002.003-.003.008-.011.033-.046-3.297-2.266a1.954 1.954 0 0 1 .038-.053l.002-.003v.002l-.003.003a1.548 1.548 0 0 0-.041.057l3.296 2.266zm-.012.018l4.572-6.441-3.262-2.316-4.572 6.442 3.262 2.315zm4.565-6.43c.568-.791.647-1.835.201-2.702l-3.557 1.829A1.406 1.406 0 0 1 12.1-.231l3.247 2.336zm.201-2.702A2.587 2.587 0 0 0 13.244-2l.008 4a1.414 1.414 0 0 1-1.26-.768l3.557-1.828zM6.964 5.778a4.023 4.023 0 0 0-.784 2.379l4 .007c0-.005.001-.01.004-.013l-3.22-2.373zM6.18 8.16v4.178h4V8.16h-4zm1.287 2.309l-2.345.894 1.425 3.737 2.345-.894-1.425-3.737zm.367 2.763V8.16h-4v5.072h4zm0-5.076a4.022 4.022 0 0 0-.784-2.38L3.83 8.152a.022.022 0 0 1 .004.013l4-.007zm-.763-2.35L2.63-.447-.63 1.868l4.439 6.254 3.262-2.315zM1 2.71h12.012v-4H1v4zM11.382-.447l-4.44 6.254 3.262 2.315 4.44-6.254-3.262-2.315z" mask="url(#b)"/>
    </g>
    
</symbol><symbol id="icon-girl" viewBox="0 0 56 64">
    <path d="M32.204 48.356a5.95 5.95 0 0 1-8.405 0 1.214 1.214 0 1 0-1.717 1.717 8.346 8.346 0 0 0 5.92 2.448 8.346 8.346 0 0 0 5.92-2.448 1.214 1.214 0 1 0-1.718-1.717z"/>
    <path d="M55.486 60.405c-2.845-3.15-2.966-11.178-2.629-19.484a6.358 6.358 0 0 0 .432-8.845c.414-8.472.633-14.137-2.054-19.369-1.834-3.57-4.8-6.552-8.817-8.864A28.857 28.857 0 0 0 26.973.019c-4.763.17-9.198 2.388-12.256 6.112-3.948.235-7.54 2.383-9.472 5.705a19.04 19.04 0 0 0-.477.871c-2.69 5.234-2.47 10.9-2.056 19.37a6.358 6.358 0 0 0 .432 8.842c.336 8.308.216 16.336-2.629 19.487a1.215 1.215 0 0 0 .472 1.95 25.63 25.63 0 0 0 9.103 1.642c2.907 0 5.489-.467 7.515-1.015 3.522-.952 6.006-2.289 6.853-2.782a21.77 21.77 0 0 0 7.085 0c.847.494 3.331 1.83 6.852 2.782A28.562 28.562 0 0 0 45.872 64c3.777 0 6.89-.794 9.142-1.645a1.214 1.214 0 0 0 .472-1.95zM49.71 38.782v-6.03V32.52a3.954 3.954 0 0 1 2.733 3.755 3.954 3.954 0 0 1-2.77 3.768c.023-.417.037-.837.037-1.26zM6.928 13.817c.132-.255.271-.511.416-.76 1.6-2.749 4.66-4.48 7.985-4.518h.017c.368-.008.714-.183.938-.476 2.621-3.419 6.549-5.466 10.775-5.617a26.434 26.434 0 0 1 14.147 3.502c3.605 2.075 6.252 4.723 7.868 7.869 2.15 4.187 2.215 8.742 1.862 16.568-.39-.163-.8-.287-1.225-.369v-1.235a1.215 1.215 0 0 0-2.43 0v2.758c-16.73.179-25.786-7.88-28.203-10.4a1.215 1.215 0 0 0-2 .378c-1.765 4.293-4.848 6.54-9.704 7.069a1.214 1.214 0 0 0-1.083 1.207v.223a6.32 6.32 0 0 0-1.226.37c-.353-7.825-.289-12.38 1.863-16.569zm-.6 26.226a3.954 3.954 0 0 1-2.77-3.768 3.954 3.954 0 0 1 2.733-3.755v6.262c0 .424.014.844.038 1.261zM3.363 60.597c2.165-3.697 2.541-9.843 2.266-18.228.322.1.656.173.998.22 1.381 7.777 6.918 14.135 14.224 16.691-3.514 1.512-10.165 3.516-17.488 1.317zM28 58.063c-10.632 0-19.28-8.65-19.28-19.281v-7.929c4.554-.75 7.797-2.992 9.853-6.818 1.75 1.596 4.58 3.786 8.566 5.704 5.996 2.886 12.766 4.309 20.142 4.23v4.813c0 10.632-8.65 19.28-19.281 19.28zm11.108 2.597a28.742 28.742 0 0 1-3.962-1.378c7.309-2.555 12.848-8.914 14.23-16.693.34-.047.674-.12.996-.22-.275 8.387.1 14.532 2.267 18.229-4.29 1.296-8.833 1.318-13.53.062z"/>
    <path d="M13.486 35.183a1.214 1.214 0 1 0 1.717 1.717 1.999 1.999 0 0 1 2.823 0 1.21 1.21 0 0 0 1.718 0 1.214 1.214 0 0 0 0-1.717 4.43 4.43 0 0 0-6.258 0z"/>
    <path d="M42.517 36.9a1.214 1.214 0 0 0 0-1.717 4.43 4.43 0 0 0-6.259 0 1.214 1.214 0 1 0 1.718 1.717 2 2 0 0 1 2.823 0c.237.238.548.356.86.356.31 0 .62-.118.858-.356z"/>
</symbol><symbol id="icon-instagram" viewBox="0 0 22 22">
    <path fill-rule="evenodd" clip-rule="evenodd" d="M14.884 0H6.316A6.323 6.323 0 0 0 0 6.316v8.568A6.323 6.323 0 0 0 6.316 21.2h8.568a6.323 6.323 0 0 0 6.316-6.316V6.316A6.323 6.323 0 0 0 14.884 0zm4.183 14.884a4.183 4.183 0 0 1-4.183 4.183h-8.57a4.183 4.183 0 0 1-4.182-4.183V6.315a4.183 4.183 0 0 1 4.183-4.183h8.569a4.183 4.183 0 0 1 4.183 4.183v8.569zM5.116 10.599a5.49 5.49 0 0 1 5.483-5.483 5.49 5.49 0 0 1 5.483 5.483 5.49 5.49 0 0 1-5.483 5.483A5.49 5.49 0 0 1 5.116 10.6zm5.483 3.35a3.35 3.35 0 1 1 0-6.7 3.35 3.35 0 0 1 0 6.7zm6.808-8.792a1.314 1.314 0 1 1-2.628 0 1.314 1.314 0 0 1 2.628 0z"/>
</symbol><symbol id="icon-marker" viewBox="0 0 20 28">
    <path fill-rule="evenodd" clip-rule="evenodd" d="M9.422 27.066l.526.628.526-.628c.372-.443 9.11-10.935 9.11-17.218C19.583 4.418 15.26 0 9.947 0 4.635 0 .312 4.418.312 9.848c0 6.283 8.738 16.775 9.11 17.218zM10 15.446a5.328 5.328 0 1 0 0-10.655 5.328 5.328 0 0 0 0 10.656z"/>
</symbol><symbol id="icon-search" viewBox="0 0 24 24">
    <path fill-rule="evenodd" clip-rule="evenodd" d="M9.75 19.448c-5.347 0-9.697-4.351-9.697-9.698S4.403.053 9.75.053c5.347 0 9.698 4.35 9.698 9.697 0 5.347-4.351 9.698-9.698 9.698zm0-18c-4.578 0-8.302 3.724-8.302 8.302 0 4.578 3.724 8.303 8.302 8.303 4.578 0 8.303-3.725 8.303-8.303 0-4.578-3.725-8.302-8.303-8.302z"/>
    <path fill-rule="evenodd" clip-rule="evenodd" d="M22.72 23.78l-6.75-6.75 1.06-1.06 6.75 6.75-1.06 1.06z"/>
</symbol><symbol id="icon-share" viewBox="0 0 20 20">
    <path fill-rule="evenodd" clip-rule="evenodd" d="M3.334 13.287A3.29 3.29 0 0 1 .047 10a3.29 3.29 0 0 1 3.287-3.287A3.29 3.29 0 0 1 6.62 10a3.29 3.29 0 0 1-3.286 3.287zm0-5.334A2.05 2.05 0 0 0 1.287 10a2.05 2.05 0 0 0 2.047 2.047A2.05 2.05 0 0 0 5.38 10a2.05 2.05 0 0 0-2.046-2.047z"/>
    <path fill-rule="evenodd" clip-rule="evenodd" d="M16.668 6.62a3.29 3.29 0 0 1-3.287-3.286A3.29 3.29 0 0 1 16.668.047a3.29 3.29 0 0 1 3.286 3.287 3.29 3.29 0 0 1-3.287 3.286zm0-5.333a2.05 2.05 0 0 0-2.047 2.047 2.05 2.05 0 0 0 2.047 2.046 2.05 2.05 0 0 0 2.046-2.046 2.05 2.05 0 0 0-2.046-2.047z"/>
    <path fill-rule="evenodd" clip-rule="evenodd" d="M16.668 19.953a3.29 3.29 0 0 1-3.287-3.287 3.29 3.29 0 0 1 3.287-3.286 3.29 3.29 0 0 1 3.286 3.286 3.29 3.29 0 0 1-3.287 3.287zm0-5.333a2.05 2.05 0 0 0-2.047 2.047 2.05 2.05 0 0 0 2.047 2.046 2.05 2.05 0 0 0 2.046-2.046 2.05 2.05 0 0 0-2.046-2.047z"/>
    <path fill-rule="evenodd" clip-rule="evenodd" d="M13.992 16.075L5.41 11.784l.597-1.193 8.582 4.292-.597 1.192z"/>
    <path fill-rule="evenodd" clip-rule="evenodd" d="M6.007 9.409L5.41 8.216l8.582-4.291.597 1.192L6.007 9.41z"/>
</symbol><symbol id="icon-star-empty" viewBox="0 0 23 21">
    <path opacity=".1" fill-rule="evenodd" clip-rule="evenodd" d="M11.745 17.05l-6.68 3.513 1.275-7.44L.935 7.854l7.47-1.085L11.745 0l3.341 6.769 7.47 1.085-5.405 5.269 1.276 7.44-6.681-3.513z"/>
</symbol><symbol id="icon-star" viewBox="0 0 23 21">
    <path fill-rule="evenodd" clip-rule="evenodd" d="M11.537 17.05l-6.682 3.513 1.276-7.44L.726 7.854l7.47-1.085L11.536 0l3.341 6.769 7.47 1.085-5.405 5.269 1.276 7.44-6.681-3.513z"/>
</symbol><symbol id="icon-telegram" viewBox="0 0 300 261.2">
    <path d="M5.3 125.2L74.4 151l26.8 86c1.7 5.5 8.5 7.5 12.9 3.9l38.5-31.4c4-3.3 9.8-3.5 14-.4l69.5 50.5c4.8 3.5 11.6.9 12.8-4.9L299.8 9.8c1.3-6.3-4.9-11.6-10.9-9.3L5.2 110c-7 2.7-6.9 12.6.1 15.2zm91.6 12.1L232 54.1c2.4-1.5 4.9 1.8 2.8 3.7L123.3 161.5c-3.9 3.6-6.4 8.5-7.2 13.8l-3.8 28.1c-.5 3.8-5.8 4.1-6.8.5l-14.6-51.3c-1.6-5.8.8-12.1 6-15.3z"/>
</symbol><symbol id="icon-youtube" viewBox="0 0 29 21">
    <path fill-rule="evenodd" clip-rule="evenodd" d="M27 1.575c.821.907 1.11 2.96 1.11 2.96s.29 2.433.29 4.867v2.243c0 2.387-.29 4.82-.29 4.82s-.289 2.053-1.11 2.96c-1.01 1.09-2.15 1.186-2.717 1.234l-.083.007C20.29 21 14.4 21 14.4 21s-7.29-.048-9.51-.286a5.403 5.403 0 0 0-.428-.07c-.714-.1-1.8-.25-2.662-1.219-.82-.907-1.11-2.959-1.11-2.959S.4 14.08.4 11.646V9.402c0-2.434.29-4.868.29-4.868S.931 2.482 1.8 1.575C2.81.485 3.951.389 4.518.341L4.6.334C8.51.048 14.4 0 14.4 0s5.89.048 9.8.334l.133.01c.58.045 1.686.128 2.667 1.231zM11.022 16.038V5.68l9.172 5.298-9.172 5.059z"/>
</symbol></svg>