<svg width="512" height="385" viewBox="0 0 512 385" fill="none" xmlns="http://www.w3.org/2000/svg">
<g opacity="0.04">
<path d="M71.2538 20.7721C71.2538 20.7721 97.5685 56.7848 110.193 79.2482L122.816 101.712C122.816 101.712 139.174 70.1559 166.378 45.7314C193.76 21.307 224.164 11.3232 224.164 11.3232L241.055 76.0392C241.055 76.0392 182.736 133.267 136.152 237.562C89.5674 341.678 75.521 385 75.521 385C75.521 385 60.23 382.147 45.828 382.147C41.0273 382.147 24.4917 384.643 24.4917 384.643C24.4917 384.643 37.6491 298.712 50.8065 247.189C62.3636 201.727 66.8087 184.79 66.8087 184.79L0.310547 73.5432L71.2538 20.7721Z" fill="#272727"/>
<path d="M288.833 381.226L407.013 199.047C399.099 186.796 286.195 84.6972 286.195 84.6972C360.41 17.2235 427.941 0 427.941 0L480.172 58.418L444.12 66.7635C410.882 75.8191 362.696 90.9119 362.696 90.9119C362.696 90.9119 515.521 198.87 511.828 203.131L365.51 368.797C365.685 368.797 324.709 363.648 288.833 381.226Z" fill="#272727"/>
<path d="M266.587 152.189C266.587 152.189 279.383 163.531 284.536 169.911C289.69 176.291 294.844 181.785 294.844 181.785L235.487 201.988L266.587 152.189ZM368.951 202.342C368.951 202.342 301.242 126.492 251.837 98.1367C251.837 98.1367 202.432 162.468 175.419 217.583C148.762 272.167 121.039 349.79 120.683 351.03C121.749 350.853 252.725 317.89 282.759 311.333C294.133 308.852 310.127 307.257 310.127 307.257C310.127 307.257 314.037 296.978 320.435 288.117C325.589 280.851 334.119 268.623 334.119 268.623L202.254 263.483L368.951 202.342Z" fill="#272727"/>
</g>
</svg>
