<svg width="59" height="77" viewBox="0 0 59 77" fill="none" xmlns="http://www.w3.org/2000/svg">
<path d="M29.7129 0C13.6048 0.016513 0.553178 13.0749 0.544922 29.183C0.544922 44.8553 27.4461 75.2242 28.587 76.5002C29.14 77.1179 30.0891 77.1703 30.7068 76.6173C30.7479 76.5805 30.787 76.5415 30.8239 76.5002C31.9648 75.2092 58.866 44.8553 58.866 29.183C58.8576 13.0807 45.8149 0.0247695 29.7129 0ZM29.7129 73.2126C24.5788 67.2079 3.54729 42.0031 3.54729 29.168C3.54729 14.717 15.2619 3.00236 29.7129 3.00236C44.1638 3.00236 55.8785 14.717 55.8785 29.168C55.8785 42.0031 34.8469 67.2379 29.7129 73.2126Z" fill="#FF8400"/>
<path d="M30.2407 14.6367C21.5106 14.645 14.44 21.7291 14.4482 30.4592C14.4565 39.1893 21.5406 46.2599 30.2707 46.2516C38.995 46.2433 46.0631 39.1685 46.0631 30.4442C46.0466 21.715 38.9699 14.645 30.2407 14.6367ZM30.2407 43.2642C23.1686 43.2642 17.4356 37.5312 17.4356 30.4592C17.4356 23.3871 23.1686 17.6541 30.2407 17.6541C37.3127 17.6541 43.0458 23.3871 43.0458 30.4592C43.0375 37.5279 37.3092 43.256 30.2407 43.2642Z" fill="#FF8400"/>
</svg>
