<svg width="41" height="72" viewBox="0 0 41 72" fill="none" xmlns="http://www.w3.org/2000/svg">
<path d="M26.1396 4.31738H14.3791C13.73 4.31738 13.2031 4.84426 13.2031 5.49339C13.2031 6.14252 13.73 6.6694 14.3791 6.6694H26.1396C26.7888 6.6694 27.3156 6.14252 27.3156 5.49339C27.3156 4.84426 26.7888 4.31738 26.1396 4.31738Z" fill="#FF8400"/>
<path d="M34.3706 4.31738H33.1946C32.5454 4.31738 32.0186 4.84426 32.0186 5.49339C32.0186 6.14252 32.5454 6.6694 33.1946 6.6694H34.3706C35.0197 6.6694 35.5466 6.14252 35.5466 5.49339C35.5466 4.84426 35.0197 4.31738 34.3706 4.31738Z" fill="#FF8400"/>
<path d="M21.7185 60.7681H18.7984C17.0096 60.7681 15.5537 62.224 15.5537 64.0127V64.5808C15.5537 66.3696 17.0096 67.8244 18.7973 67.8244H21.7174C23.5061 67.8244 24.9621 66.3696 24.9621 64.5808V64.0127C24.9621 62.224 23.5061 60.7681 21.7185 60.7681ZM22.61 64.5808C22.61 65.0724 22.2102 65.4722 21.7186 65.4722H18.7984C18.3057 65.4722 17.9057 65.0724 17.9057 64.5808V64.0127C17.9057 63.52 18.3055 63.1201 18.7984 63.1201H21.7174C22.2102 63.1201 22.61 63.5199 22.61 64.0127V64.5808Z" fill="#FF8400"/>
<path d="M36.0042 0.789551H4.51999C2.17611 0.789551 0.268555 2.6971 0.268555 5.04099V67.1014C0.268555 69.4453 2.17611 71.3529 4.51999 71.3529H36.0029C38.3468 71.3529 40.2544 69.4453 40.2544 67.1027V5.04099C40.2545 2.6971 38.347 0.789551 36.0042 0.789551ZM37.9024 67.1014C37.9024 68.1482 37.0509 69.0007 36.0042 69.0007H4.51999C3.47216 69.0007 2.62071 68.148 2.62071 67.1025V5.04099C2.62071 3.99426 3.47216 3.14171 4.51999 3.14171H36.0029C37.0508 3.14171 37.9022 3.99439 37.9022 5.04099V67.1014H37.9024Z" fill="#FF8400"/>
<path d="M39.0782 7.84619H1.44456C0.795437 7.84619 0.268555 8.37307 0.268555 9.0222V58.4165C0.268555 59.0656 0.795437 59.5925 1.44456 59.5925H39.0784C39.7275 59.5925 40.2544 59.0656 40.2544 58.4165V9.0222C40.2544 8.37307 39.7275 7.84619 39.0782 7.84619ZM37.9022 57.2405H2.62057V10.1983H37.9022V57.2405Z" fill="#FF8400"/>
</svg>
