<?xml version="1.0" encoding="UTF-8"?>
<!DOCTYPE svg PUBLIC "-//W3C//DTD SVG 1.1//EN" "http://www.w3.org/Graphics/SVG/1.1/DTD/svg11.dtd">
<!-- Creator: CorelDRAW 2019 (64-Bit) -->
<svg xmlns="http://www.w3.org/2000/svg" xml:space="preserve" width="320px" height="320px" version="1.1" style="shape-rendering:geometricPrecision; text-rendering:geometricPrecision; image-rendering:optimizeQuality; fill-rule:evenodd; clip-rule:evenodd"
viewBox="0 0 320 320"
 xmlns:xlink="http://www.w3.org/1999/xlink"
 xmlns:xodm="http://www.corel.com/coreldraw/odm/2003">
 <defs>
  <style type="text/css">
   <![CDATA[
    .fil0 {fill:#231F1F;fill-rule:nonzero}
   ]]>
  </style>
 </defs>
 <g id="Слой_x0020_1">
  <metadata id="CorelCorpID_0Corel-Layer"/>
  <g id="_1715663040752">
   <path class="fil0" d="M159.98 120.11c0.05,-0.1 0.05,-0.17 0,0z"/>
   <path class="fil0" d="M142.81 185.01c0.14,0.56 0.79,0.92 1.34,0.73 0.28,0.66 1.32,0.97 1.79,0.16 0.43,-0.71 0.89,-1.41 1.35,-2.11 3.82,-4.75 7.76,-9.41 11.76,-14.02 0.38,-0.41 0.77,-0.82 1.15,-1.23 2.23,2.69 4.16,5.61 6.53,8.2 2.94,3.21 7.2,5.08 9.68,8.72 0.37,0.54 0.9,0.76 1.43,0.75 1.27,1.46 3.91,-0.15 2.74,-1.87 -1.16,-1.7 -2.62,-3.02 -4.16,-4.27 -4.38,-4.95 -8.82,-9.85 -13.34,-14.66 0.03,-0.03 0.06,-0.07 0.09,-0.1 1.84,-2.06 3.6,-4.18 5.34,-6.32 0.84,-0.96 1.69,-1.92 2.54,-2.89 2.59,-2.93 5.16,-5.92 8.53,-7.98 1.49,-0.91 0.66,-2.95 -0.69,-3.11 -0.21,-0.36 -0.59,-0.59 -0.97,-0.54 -0.1,-0.03 -0.21,-0.02 -0.31,-0.03 -0.31,-0.54 -1.02,-0.84 -1.52,-0.23 -0.51,0.61 -1,1.23 -1.5,1.84 -2.32,1.76 -4.34,3.88 -6.28,6.08 -2.87,3.24 -5.74,6.5 -8.6,9.76 -4.19,-4.4 -8.46,-8.74 -12.78,-13.01 -0.83,-1 -1.71,-1.93 -2.72,-2.71 -0.34,-0.34 -0.68,-0.68 -1.03,-1.02 -0.29,-0.29 -0.63,-0.32 -0.93,-0.23 -0.12,-0.12 -0.23,-0.23 -0.35,-0.35 -0.42,-0.41 -0.93,-0.33 -1.29,-0.04 -1.36,0.18 -2.19,2.21 -0.68,3.08 1.86,1.07 3.07,2.76 4.33,4.45 1.27,1.71 2.64,3.34 4.13,4.88 2.72,2.84 5.71,5.41 8.54,8.13 -4.95,5.68 -9.84,11.41 -14.53,17.31 -0.74,0.93 -0.33,2.09 0.41,2.63z"/>
   <g>
    <path class="fil0" d="M150.08 46.12c0.11,0.01 0.21,0.01 0.31,0.01 0.2,0.31 0.51,0.54 0.98,0.57 6.76,0.31 13.82,0.3 20.48,-1.01 3.41,-0.67 6.49,-2.03 8.72,-4.32 1.41,-1.18 2.29,-2.79 2.8,-4.62 0,-0.01 0.01,-0.02 0.02,-0.03 0.98,-3.01 1.29,-6.34 1.64,-9.47 0.38,-3.34 0.5,-6.7 -0.03,-10.03 -0.9,-5.67 -3.87,-10.69 -8.93,-13.57 -0.91,-0.52 -1.85,-0.94 -2.8,-1.31 -6.17,-2.88 -13.23,-2.58 -19.87,-1.83 -1.01,0.12 -1.38,1.17 -1.11,1.88 -0.05,0.71 0.27,1.44 1.16,1.68 1.76,0.46 1.29,3.87 1.34,5.3 0.04,1.63 0.08,3.26 0.12,4.89 0.07,3.66 0.11,7.33 0.11,11 -0.01,3.53 -0.04,7.06 -0.11,10.6 -0.03,1.35 0.39,4.13 -0.41,5.34 -0.7,1.06 -2.63,1.22 -3.74,1.4 -0.72,0.11 -1.07,0.56 -1.17,1.09 -1.09,0.4 -0.93,2.36 0.49,2.43zm23.96 -38.52l0 0c4.81,4.39 4.74,10.31 5.05,16.36 0.16,3.01 0.54,6.14 0.17,9.16 -0.19,1.5 -0.6,3.09 -1.5,4.33 -1.08,1.51 -2.49,1.71 -4.2,2.04 -1.43,0.28 -2.42,0.78 -3.64,1.56 -1.49,0.96 -2.79,1.06 -4.52,1.1 -1.7,0.04 -3.4,0.07 -5.1,0.11 0.16,-12.53 -0.07,-25.05 -0.69,-37.56 2.95,-0.53 6.42,-0.49 9.22,0.11 0.78,0.17 1.53,0.42 2.26,0.72 1.07,0.56 2.06,1.26 2.95,2.07z"/>
    <path class="fil0" d="M195.15 47.94c0.09,0 0.18,0 0.27,0 0.19,0.32 0.52,0.57 1.02,0.57 3.37,0 6.73,0 10.1,0 0.76,0 1.15,-0.55 1.2,-1.13 0.08,-0.13 0.16,-0.26 0.2,-0.41 0.21,-0.92 -0.29,-1.75 -1.17,-2.06 -0.24,-0.08 -0.47,-0.17 -0.7,-0.25 -0.17,-0.14 -0.37,-0.25 -0.59,-0.32 -0.42,-0.15 -0.84,-0.31 -1.26,-0.47 -0.28,-0.15 -0.54,-0.33 -0.81,-0.52 -0.06,-0.05 -0.12,-0.12 -0.18,-0.18 -0.05,-1.24 -0.1,-2.48 -0.15,-3.72 -0.12,-3.63 -0.25,-7.24 -0.34,-10.86 -0.01,-0.55 -0.03,-1.1 -0.05,-1.64 2.15,0.12 4.34,0.18 6.48,-0.07 2,2.65 4.03,5.26 6.07,7.88 1.03,1.47 2.05,2.94 3.09,4.4 1.46,2.04 2.87,4.14 4.46,6.08 0.92,1.12 2.05,2.01 3.33,2.46 0.18,0.1 0.36,0.19 0.55,0.26 0.24,0.13 0.49,0.23 0.74,0.32 0.81,0.47 1.72,0.69 2.77,0.38 0.16,-0.04 0.28,-0.12 0.39,-0.2 1.83,-0.49 1.15,-3.2 -0.65,-3.18 -0.37,-0.44 -0.92,-0.72 -1.63,-0.58 -0.22,0.05 -0.44,0.05 -0.65,0.02 -0.94,-0.72 -1.7,-1.93 -2.27,-2.71 -1.36,-1.86 -2.71,-3.74 -4.04,-5.63 -2.52,-3.55 -4.99,-7.15 -7.42,-10.77 2.67,-1.25 4.79,-3.36 5.97,-6.12 2.68,-6.29 -0.72,-13.21 -6.86,-15.58 -0.71,-0.37 -1.47,-0.69 -2.27,-0.92 -4.48,-1.31 -9.42,-1.65 -14.07,-1.81 -0.93,-0.04 -1.31,0.79 -1.16,1.5 -0.01,0.08 -0.05,0.16 -0.05,0.24 0.02,0.45 0.18,0.84 0.49,1.18 0.12,0.14 0.23,0.28 0.35,0.42 0.41,0.55 0.77,1.14 1.06,1.76 0.1,0.19 0.25,0.35 0.43,0.47 0.04,0.04 0.11,0.05 0.15,0.08 -0.11,11.52 0.09,23.04 0.6,34.54 -0.24,0.21 -0.45,0.46 -0.55,0.8 -0.02,0.06 -0.05,0.12 -0.07,0.18 -0.14,0.3 -0.3,0.58 -0.49,0.85 -0.2,0.24 -0.43,0.46 -0.67,0.67 -0.25,0.18 -0.52,0.34 -0.8,0.47 -0.19,0.07 -0.39,0.14 -0.59,0.19 -0.4,0.09 -0.8,0.42 -1,0.77 -0.11,0.18 -0.18,0.41 -0.21,0.64 -0.48,0.74 -0.17,2 0.98,2zm20.12 -33.37l0 0c0.04,1.34 0.2,3.04 -0.86,4.05 -1.1,1.04 -2.57,1.85 -3.96,2.44 -2.45,1.04 -5.17,1.44 -7.83,1.2 -0.07,-5.12 -0.09,-10.23 -0.03,-15.34 0,-0.36 -0.11,-0.64 -0.26,-0.88 0,-0.07 0,-0.14 0,-0.21 0.01,0 0.02,0.01 0.03,0.01 0.09,0 0.15,-0.04 0.23,-0.05 1.7,0.26 3.4,0.52 5.09,0.78 1.36,0.21 2.81,0.35 4.14,0.79 2.45,1.45 3.36,4.5 3.45,7.21z"/>
    <path class="fil0" d="M185.43 65.49c-0.22,0.34 -0.33,0.78 -0.22,1.3 0.17,0.77 0.29,1.54 0.45,2.31 1.01,16.6 1.27,33.25 0.77,49.87 -0.05,0.04 -0.09,0.08 -0.14,0.12 -0.04,0.03 -0.08,0.06 -0.11,0.09 -0.39,0.29 -0.79,0.57 -1.21,0.82 -0.43,0.26 -0.87,0.5 -1.32,0.72 -0.09,0.04 -0.18,0.08 -0.27,0.12 0.01,0 -0.16,0.07 -0.22,0.1 -0.08,0.03 -0.19,0.08 -0.21,0.08 -0.14,0.06 -0.28,0.11 -0.42,0.16 -0.75,0.27 -1.31,1 -1.2,1.81 -0.37,0.74 -0.04,1.87 1.05,1.87 0.09,0 0.18,-0.01 0.27,-0.01 0.19,0.33 0.51,0.58 1.01,0.58 3.65,-0.01 7.27,-0.31 10.87,-0.84 0.67,-0.1 1.04,-0.95 0.88,-1.54 -0.13,-0.48 -0.48,-0.74 -0.89,-0.84 -0.03,-0.11 -0.07,-0.21 -0.14,-0.31 -0.63,-0.93 -1.37,-1.7 -2.28,-2.36 -0.1,-0.07 -0.21,-0.15 -0.31,-0.22 2.07,-15.47 1.82,-31.14 -0.84,-46.51 5.03,6.02 8.56,13.37 12.8,19.91 6,9.24 12.78,17.98 20.2,26.14 0.15,0.17 0.32,0.27 0.49,0.35 0.08,0.1 0.16,0.21 0.24,0.31 0.31,0.36 0.71,0.43 1.09,0.34 0.07,0.07 0.13,0.15 0.19,0.23 0.75,0.88 2.1,0.12 2.15,-0.89 0.77,-18.23 0.98,-36.47 0.68,-54.72 0.32,-0.21 0.58,-0.52 0.68,-0.91 0.01,-0.03 0.01,-0.03 0.01,-0.05 0.01,0 0.01,0 0.01,0 0.05,-0.05 0.06,-0.07 0.07,-0.08 0.02,-0.01 0.04,-0.02 0.1,-0.05 0.18,-0.08 0.35,-0.18 0.54,-0.27 0.07,-0.03 0.42,-0.18 0.47,-0.2 1.01,-0.41 2.01,-0.82 3.01,-1.23 0.78,-0.32 1.34,-0.95 1.21,-1.84 -0.13,-0.82 -0.8,-1.44 -1.65,-1.45 -0.02,0 -0.04,0 -0.07,0 -0.3,-0.34 -0.71,-0.57 -1.21,-0.58 -3.52,-0.05 -7.04,-0.06 -10.56,-0.03 -1.05,0.01 -2.13,0.06 -2.74,1.07 -0.64,1.08 -0.17,2.41 0.96,2.9 0.22,0.09 0.48,0.16 0.74,0.22 0.16,0.14 0.34,0.27 0.54,0.35 0.39,0.17 0.9,0.26 1.33,0.36 0.29,0.2 0.56,0.41 0.83,0.68 -0.88,16.11 -0.91,32.25 -0.11,48.36 -1.49,-1.76 -2.94,-3.55 -4.37,-5.36 -3.58,-5.1 -6.91,-10.38 -9.91,-15.86 -2.57,-4.67 -5.32,-8.66 -9,-12.47 -2.46,-3.87 -5.17,-7.53 -8.52,-10.64 -0.74,-1.11 -1.47,-2.24 -2.19,-3.4 -0.28,-0.44 -0.79,-0.61 -1.27,-0.56 0,0 -0.01,-0.01 -0.01,-0.01 -0.62,-1 -2.43,-0.67 -2.34,0.63 0.03,0.48 0.06,0.95 0.09,1.43z"/>
    <path class="fil0" d="M124.83 64.64c0.02,0.02 0.06,0.04 0.11,0.07 0,0 -0.01,0 -0.01,0 -0.03,-0.02 -0.07,-0.05 -0.1,-0.07z"/>
    <path class="fil0" d="M141.82 81.25c-3.94,12.82 -7.88,25.63 -11.82,38.45 -0.03,0.1 -0.01,0.18 -0.02,0.26 -1.33,0.39 -2.61,0.93 -3.87,1.51 -0.25,0.11 -0.42,0.31 -0.56,0.54 -0.39,0.2 -0.68,0.57 -0.68,1.07 0,0.63 0.58,1.32 1.26,1.26 0,0 0.01,0 0.01,0 0.12,0.06 0.23,0.13 0.36,0.16 0.23,0.27 0.55,0.45 0.91,0.41 0.01,0 0.01,0 0.02,0 0.49,0.27 1.07,0.29 1.65,0.02 0.14,-0.06 0.26,-0.11 0.38,-0.17 2.59,-0.21 5.18,-0.34 7.77,-0.38 0.66,0.47 1.62,0.53 2.21,-0.11 0,0 0.01,-0.02 0.01,-0.03 1.09,-0.35 1.08,-2.05 -0.05,-2.36 -0.71,-0.63 -1.55,-1.09 -2.43,-1.39 -0.63,-0.37 -1.31,-0.61 -2.01,-0.78 1.68,-5.46 3.36,-10.91 5.04,-16.38 0.12,-0.39 0.25,-0.79 0.38,-1.19 0.05,0 0.09,0.02 0.14,0.02 6.36,-0.43 12.74,-0.58 19.12,-0.48 0.34,2.21 0.68,4.42 1.23,6.59 0.78,3.05 2.62,5.69 3.93,8.5 0.18,0.68 0.36,1.36 0.54,2.04 -0.42,0.3 -0.7,0.73 -0.91,1.23 -0.02,0.06 -0.05,0.12 -0.06,0.17 0.01,-0.05 0.01,-0.07 0.02,-0.1 0,0.02 -0.01,0.03 -0.01,0.04 -0.04,0.06 -0.08,0.12 -0.11,0.18 -0.09,0.07 -0.25,0.23 -0.31,0.31 -0.06,0.04 -0.11,0.07 -0.17,0.11 -0.04,0.02 -0.09,0.04 -0.13,0.06 0,0 0,0 0,0 -0.18,0.05 -0.35,0.1 -0.53,0.13 -0.56,0.08 -0.96,0.6 -1.13,1.17 -0.32,0.31 -0.48,0.82 -0.36,1.25 0.18,0.66 0.8,0.95 1.44,0.88 0.28,0.46 0.83,0.67 1.39,0.57 0.12,-0.02 0.25,-0.04 0.37,-0.06 0.15,0 0.31,0.02 0.47,-0.01 0.24,-0.04 0.48,-0.1 0.72,-0.19 2.1,-0.32 4.23,-0.5 6.36,-0.54 0.08,0 0.16,0.01 0.24,-0.01 0.31,0 0.62,-0.02 0.93,-0.02 1.52,0.01 1.59,-2.19 0.25,-2.46 -0.21,-0.35 -0.55,-0.63 -0.99,-0.79 -0.24,-0.08 -0.47,-0.17 -0.71,-0.25 -0.16,-0.14 -0.35,-0.24 -0.57,-0.32 -0.13,-0.05 -0.25,-0.09 -0.38,-0.14 -0.11,-0.52 -0.46,-0.99 -0.92,-1.24 -0.61,-1.96 -1.65,-3.74 -2.63,-5.54 -1.32,-5.06 -2.62,-10.13 -3.98,-15.19 -0.2,-1.12 -0.43,-2.23 -0.73,-3.33 -0.43,-1.55 -0.92,-3.06 -1.44,-4.58 -2.64,-9.36 -5.58,-18.63 -9.18,-27.65 0,-0.19 0.02,-0.37 0.01,-0.56 -0.05,-1.06 -0.9,-1.59 -1.73,-1.61 -0.91,-1 -2.99,-0.67 -2.9,1.04 0.16,3.28 -1.66,6.18 -2.9,9.1 -1.35,3.18 -2.37,6.47 -3.03,9.87 -0.07,0.35 -0.01,0.64 0.09,0.92zm17.08 16.1l0 0c-5.67,0.06 -11.34,0.11 -17.01,0.17 0.76,-2.28 1.51,-4.56 2.28,-6.84 0.81,-2.4 1.58,-4.81 2.12,-7.28 0.1,-0.48 0.19,-0.96 0.27,-1.44 0.13,-0.4 0.26,-0.81 0.38,-1.21 0.11,-0.35 0.07,-0.65 -0.01,-0.92 0.18,-1.07 0.37,-2.13 0.6,-3.19 0.51,-1.67 1.11,-3.3 1.83,-4.89 0.08,-0.18 0.16,-0.36 0.24,-0.53 0.92,2.89 2.26,5.71 3.3,8.43 1.84,4.83 3.84,9.64 5.27,14.62 0.29,1.02 0.52,2.05 0.73,3.08zm5.36 23l0 0c-0.01,0.01 -0.01,0.02 -0.02,0.03 -0.09,0.15 -0.04,0.04 0.02,-0.03zm-0.24 0.26l0 0c-0.02,0 -0.03,0.01 -0.05,0.02 0.08,-0.06 0.21,-0.12 0.05,-0.02z"/>
    <path class="fil0" d="M101.81 45.61c0.11,0.09 0.22,0.18 0.33,0.27 0.27,0.15 0.55,0.22 0.85,0.22 0.01,0 0.02,0 0.03,0 0.03,0.03 0.04,0.06 0.07,0.09 0.11,0.09 0.22,0.18 0.34,0.26 0.26,0.16 0.54,0.23 0.84,0.23 0.3,-0.01 0.6,-0.05 0.88,-0.12 0.08,-0.03 0.16,-0.05 0.24,-0.08 0.13,-0.05 0.25,-0.11 0.38,-0.17 2.15,0 4.3,0 6.46,0 0.65,0 1.29,-0.57 1.25,-1.25 -0.01,-0.25 -0.1,-0.47 -0.23,-0.67 0.01,-0.16 0.02,-0.31 -0.03,-0.47 -0.06,-0.13 -0.11,-0.26 -0.17,-0.4 -0.15,-0.25 -0.34,-0.44 -0.59,-0.59 0.08,0.06 0.16,0.13 0.24,0.19 -0.21,-0.17 -0.39,-0.37 -0.57,-0.58 -0.14,-0.19 -0.26,-0.39 -0.36,-0.61 -0.03,-0.09 -0.06,-0.18 -0.09,-0.27 -0.11,-0.4 -0.41,-0.79 -0.77,-1 -0.03,-0.02 -0.07,-0.02 -0.1,-0.04 1.28,-3.36 1.03,-7.39 1.12,-11.19 0.13,-5.75 0.27,-11.51 0.4,-17.26 2.78,2.95 5.32,6.12 7.73,9.39 0.04,0.08 0.08,0.15 0.13,0.23 2.53,4.34 5.45,8.43 8.63,12.3 1.51,2.27 3.03,4.56 4.89,6.51 0.64,0.68 1.41,1.14 2.15,1.29 0.45,0.3 0.92,0.51 1.37,0.59 0.8,0.6 1.78,0 1.95,-0.8 0.25,-0.37 0.45,-0.84 0.52,-1.48 0.15,-1.24 0.17,-2.52 0.15,-3.8 0.94,-9.48 1.18,-19.01 0.74,-28.52 0.17,-0.17 0.32,-0.35 0.44,-0.57 0.18,-0.36 0.37,-0.71 0.56,-1.07 0.38,-0.74 0.77,-1.48 1.16,-2.22 0.02,-0.05 0.02,-0.11 0.05,-0.16 0.45,-0.2 0.81,-0.71 0.78,-1.18 -0.03,-0.75 -0.55,-1.18 -1.25,-1.26 -0.1,-0.01 -0.19,-0.01 -0.28,-0.02 -0.22,-0.31 -0.57,-0.51 -1.01,-0.56 -2.26,-0.24 -4.53,-0.32 -6.8,-0.24 -0.66,0.03 -1.29,0.57 -1.26,1.26 0.01,0.19 0.07,0.37 0.15,0.54 -0.11,0.52 0,1.08 0.41,1.51 0.56,0.58 1.12,1.17 1.68,1.76 0.21,0.22 0.42,0.44 0.63,0.66 -0.77,5.38 -1.02,10.79 -1.01,16.22 0.01,2.93 0.09,5.86 0.15,8.79 0.03,1.34 0.06,2.68 0.07,4.03 0.01,0.18 0.01,0.36 0.01,0.55 -0.05,-0.08 -0.11,-0.16 -0.17,-0.24 -1.12,-1.61 -2.23,-3.23 -3.34,-4.85 -2.02,-2.92 -4.03,-5.85 -6.1,-8.74 -1.6,-2.22 -3.26,-4.39 -4.97,-6.51 -0.7,-1.18 -1.41,-2.34 -2.2,-3.46 -0.99,-1.4 -2.07,-2.74 -3.3,-3.93 -1.32,-1.29 -3.29,-2.59 -3.4,-4.6 -0.04,-0.89 -0.8,-1.27 -1.47,-1.18 -0.57,-0.96 -2.29,-0.78 -2.32,0.6 -0.28,11.39 -0.57,22.78 -0.85,34.16 -0.36,2 -1.23,3.7 -3.16,4.92 -0.08,0.06 -0.13,0.13 -0.19,0.19 -0.08,0.05 -0.16,0.1 -0.22,0.16 -0.06,0.07 -0.13,0.13 -0.2,0.2 -0.03,0.02 -0.07,0.04 -0.11,0.06 -0.12,0.04 -0.23,0.09 -0.35,0.1 0.06,-0.01 0.12,-0.01 0.18,-0.02 -0.19,0 -0.38,0.03 -0.56,0.12 -0.2,0.07 -0.38,0.18 -0.53,0.35 -0.17,0.15 -0.28,0.33 -0.35,0.54 -0.1,0.2 -0.15,0.41 -0.14,0.64 0.02,0.15 0.04,0.3 0.06,0.45 0.07,0.28 0.22,0.53 0.43,0.73z"/>
    <path class="fil0" d="M260.24 41.33c-0.41,-0.57 -1.25,-0.89 -1.94,-0.28 -0.12,0.11 -0.23,0.24 -0.34,0.36 -0.51,-0.17 -1.08,-0.1 -1.55,0.44 -1.63,1.83 -3.79,1.79 -6.08,1.89 -2.08,0.1 -4.17,0.19 -6.26,0.29 0.1,-6.36 0.11,-12.71 0,-19.06 1.83,0.12 3.66,0.25 5.49,0.37 0.22,0.11 0.46,0.18 0.73,0.19 0.15,0 0.3,0.01 0.45,0.03 0.15,0.02 0.31,0.06 0.46,0.09 0.15,0.09 0.31,0.16 0.45,0.26 0.13,0.12 0.27,0.23 0.4,0.36 0.22,0.22 0.5,0.34 0.81,0.41 0,0 0,0.01 0,0.01 -0.07,0.66 0.62,1.28 1.25,1.26 0.08,-0.01 0.15,-0.04 0.22,-0.06 0.23,0.37 0.65,0.65 1.06,0.63 0.74,-0.03 1.19,-0.55 1.26,-1.26 0.18,-1.9 0.22,-3.82 0.17,-5.74 0.16,-0.42 0.27,-0.86 0.26,-1.34 -0.03,-0.91 -0.75,-1.68 -1.68,-1.68 -0.01,0 -0.03,0.01 -0.05,0.01 -0.3,-0.35 -0.73,-0.58 -1.23,-0.58 -0.89,0 -1.7,0.76 -1.68,1.67 0,0.09 0,0.13 0.01,0.15 -0.02,0.06 -0.02,0.08 0.03,-0.02 -0.04,0.09 -0.09,0.17 -0.15,0.26 -0.01,0.01 -0.01,0.01 -0.02,0.02 -0.06,0.06 -0.12,0.12 -0.18,0.18 0.11,-0.08 0.09,-0.06 -0.08,0.05 -0.08,0.06 -0.17,0.1 -0.26,0.15 -0.03,0.01 -0.07,0.02 -0.16,0.05 -0.88,0.23 -1.84,0.14 -2.8,0.11 -1.62,-0.06 -3.25,0.02 -4.87,0.14 -0.12,-4.78 -0.3,-9.57 -0.54,-14.36 2.45,0.21 4.9,0.35 7.36,0.33 0.8,0 1.59,-0.02 2.39,-0.05 0.39,-0.01 0.87,-0.1 1.3,-0.09 0.59,0.59 1.08,1.5 1.31,2.07 0.28,0.71 0.9,1.22 1.66,1.2 0.41,0.47 1,0.73 1.68,0.55 0.18,-0.06 0.35,-0.15 0.51,-0.26 0.95,0.52 2.38,-0.54 1.69,-1.73 -1.07,-1.84 -2.22,-3.75 -3.63,-5.36 -0.5,-0.58 -1.13,-0.88 -1.8,-1.05 -1.46,-1.07 -3.56,-0.67 -5.3,-0.64 -4.85,0.09 -9.69,0.17 -14.54,0.26 -0.81,0.01 -1.21,0.66 -1.21,1.29 -0.21,0.8 0.08,1.77 1.1,2.1 2.98,0.96 2.56,7.04 2.68,9.52 0.17,3.66 0.1,7.33 0.04,10.99 -0.07,3.53 -0.13,7.06 0.05,10.58 0.15,2.97 1.88,7.94 -1.32,9.7 -0.36,0.21 -0.55,0.48 -0.68,0.78 -0.61,0.7 -0.36,2.03 0.75,2.08 0.15,0.09 0.31,0.16 0.47,0.2 0.18,0.22 0.46,0.36 0.82,0.38 0.45,0.28 1.02,0.37 1.62,0.03 0.05,-0.02 0.09,-0.06 0.14,-0.09 3.98,-0.19 7.97,-0.39 11.95,-0.58 1.13,-0.05 2.27,-0.1 3.4,-0.16 0.94,-0.05 1.88,-0.09 2.64,-0.73 0.63,-0.53 0.92,-1.24 1.25,-1.98 0.39,-0.9 0.88,-1.61 1.61,-2.27 1,-0.89 -0.05,-2.23 -1.12,-2.07z"/>
    <path class="fil0" d="M109.23 63.61c4.33,-0.01 8.66,-0.02 13,-0.02 0.26,0 0.48,-0.05 0.68,-0.14 0.42,0.24 0.85,0.47 1.27,0.73 0.21,0.14 0.42,0.32 0.65,0.46 -0.03,-0.03 -0.01,-0.03 0.1,0.06 0,0 0,0 0,0.01 0.01,0 0.02,0.01 0.03,0.01 -0.01,0 -0.02,0 -0.02,-0.01 0.05,0.04 0.1,0.09 0.16,0.14 0.12,0.1 0.25,0.21 0.37,0.33 0.12,0.12 0.23,0.23 0.34,0.36 0.05,0.05 0.09,0.1 0.13,0.15 0.02,0.03 0.1,0.13 0.12,0.16 0.04,0.06 0.08,0.12 0.12,0.18 0.1,0.16 0.18,0.32 0.26,0.49 0.23,0.48 0.76,0.73 1.3,0.79 0.1,0.23 0.2,0.46 0.3,0.67 0.28,0.59 0.81,0.72 1.29,0.58 0.7,1.45 2.86,0.18 2.16,-1.27 -0.98,-2.05 -1.77,-4.57 -3.14,-6.38 -0.51,-0.68 -1.17,-1 -1.89,-1.17 -1.17,-0.87 -2.75,-0.73 -4.22,-0.73 -0.46,0 -0.92,0 -1.39,0 -0.02,0.01 -0.04,0 -0.06,0 -5.2,0.01 -10.39,0.01 -15.59,0.01 -5.54,0 -11.08,0 -16.62,0 -1.55,0 -3.4,-0.12 -4.13,1.56 -0.87,2.01 -0.34,5.06 -0.17,7.17 0.07,0.87 0.83,1.25 1.49,1.18 0.37,0.56 1.13,0.72 1.68,0.48 0.65,-0.08 1.22,-0.52 1.42,-1.2 0.41,-1.49 0.8,-2.98 1.15,-4.49 0.02,0 0.04,-0.01 0.06,-0.02 0.06,-0.01 0.39,-0.05 0.12,-0.02 -0.29,0.04 0.08,-0.01 0.11,-0.01 0.76,-0.1 1.52,-0.19 2.28,-0.28 0.18,-0.02 0.34,-0.06 0.5,-0.11 0.26,0.2 0.56,0.34 0.97,0.34 3.1,0 6.2,-0.01 9.3,-0.01 -0.83,18.11 -0.12,36.26 2.09,54.25 -0.32,0.34 -0.65,0.67 -1.02,0.97 -0.56,0.41 -1.16,0.77 -1.8,1.05 -0.17,0.07 -0.33,0.13 -0.5,0.19 -0.42,0.14 -0.78,0.39 -1.01,0.77 -0.08,0.14 -0.13,0.32 -0.16,0.5 -1.02,0.51 -0.84,2.38 0.56,2.38 0.09,0 0.18,0 0.27,0 0.19,0.33 0.52,0.57 1.01,0.57 3.74,0 7.48,0 11.21,0 0.44,0 0.75,-0.18 0.94,-0.45 0.04,-0.03 0.07,-0.04 0.1,-0.07 0.53,-0.57 0.61,-1.34 0.26,-2.03 -0.78,-1.55 -2.38,-2.22 -3.71,-3.17 -0.21,-0.17 -0.4,-0.35 -0.58,-0.56 -0.01,-0.02 -0.03,-0.04 -0.04,-0.07 -0.17,-0.28 -0.45,-0.5 -0.75,-0.64 -0.17,-5.03 -0.35,-10.05 -0.53,-15.08 0,-12.88 -0.16,-25.75 -0.47,-38.61z"/>
    <path class="fil0" d="M65.88 39.95c0.55,-1.17 0.82,-2.41 1.13,-3.65 0.82,-2.29 1.65,-4.59 2.47,-6.88 0.16,0.04 0.32,0.1 0.52,0.09 4.38,-0.12 8.75,-0.18 13.12,-0.18 0.48,1.21 0.96,2.41 1.48,3.6 0.71,1.62 1.46,3.22 2.26,4.8 0.12,0.22 0.8,1.53 1.39,2.76 -0.07,0.18 -0.12,0.37 -0.11,0.57 0.02,0.9 -0.07,1.7 -0.43,2.54 -0.1,0.26 -0.15,0.54 -0.16,0.82 -0.06,0.15 -0.1,0.32 -0.09,0.48 0.03,0.71 0.55,1.22 1.25,1.26 0.09,0 0.18,0 0.27,0 0.23,0.33 0.58,0.55 1.02,0.57 1.35,0.07 2.7,0.05 4.05,0 0.9,0.63 1.97,0.26 2.51,-0.43 0.26,-0.22 0.43,-0.53 0.42,-0.91 -0.02,-0.41 -0.27,-0.83 -0.63,-1.07 -0.01,0 -0.01,-0.01 -0.02,-0.02 -1.01,-0.79 -1.94,-1.66 -2.82,-2.57 -0.15,-0.62 -0.37,-1.24 -0.67,-1.8 -2.15,-4.01 -4.12,-8.02 -5.76,-12.27 -0.93,-2.4 -1.78,-4.83 -2.61,-7.26 -1.31,-4.7 -2.57,-9.43 -4.27,-13.95 -0.13,-0.97 -0.26,-1.94 -0.55,-2.88 -0.12,-0.39 -0.34,-0.64 -0.6,-0.83 0.14,-1 -0.68,-1.63 -1.58,-1.66 -0.36,-0.42 -0.95,-0.64 -1.55,-0.57 -0.14,0 -0.29,0.04 -0.43,0.1 -0.05,0.01 -0.09,0.03 -0.13,0.05 -0.05,0.02 -0.09,0.06 -0.13,0.09 -0.32,0.18 -0.59,0.45 -0.75,0.87 -2.8,7.62 -5.6,15.25 -8.4,22.87 -1.31,3.57 -2.79,7.12 -3.69,10.81 -0.68,2.77 -2.7,5.17 -2.9,8.02 -0.55,0.01 -1.09,0.3 -1.22,0.88 -0.14,0.62 0.18,1.42 0.88,1.55 0.2,0.04 0.41,0.06 0.61,0.09 0.16,0.24 0.37,0.43 0.67,0.48 2.5,0.47 5.05,0.62 7.59,0.4 0.65,-0.05 1.29,-0.53 1.26,-1.25 -0.03,-0.64 -0.56,-1.32 -1.26,-1.26 -0.09,0.01 -0.17,0.01 -0.26,0.02 -0.22,-0.36 -0.58,-0.63 -1.02,-0.6 -0.37,0.04 -0.75,0.05 -1.12,0.07 -0.11,-0.16 -0.22,-0.31 -0.32,-0.47 -0.18,-0.32 -0.31,-0.67 -0.41,-1.02 0.13,-0.39 0.28,-0.78 0.42,-1.17 0.2,-0.36 0.4,-0.72 0.57,-1.09zm15.75 -14.54l0 0c-1.14,0 -2.28,0.01 -3.41,0.02 -2.43,0 -4.87,0 -7.3,0 0.25,-0.7 0.5,-1.41 0.76,-2.11 1.28,-3.59 2.57,-7.18 3.86,-10.77 0.3,-0.8 0.59,-1.61 0.88,-2.41 0.31,0.96 0.65,1.92 0.97,2.88 1.14,3.44 2.26,6.9 3.47,10.32 0.24,0.69 0.51,1.38 0.77,2.07z"/>
   </g>
   <g>
    <path class="fil0" d="M142.52 282.56c1.02,-1.16 3.97,-4.21 2.11,-5.8 -0.9,-0.78 -2.54,-0.32 -3.58,-0.25 -2.03,0.15 -4.06,0.28 -6.09,0.39 -0.84,0.05 -1.68,0.08 -2.53,0.12 -5.05,-0.08 -10.11,-0.2 -15.16,-0.35 4.92,-2.93 9.84,-5.89 14.89,-8.6 5.62,-3.03 12.52,-4.85 16.79,-9.87 0.59,-0.69 0.49,-1.51 0.08,-2.11 0,-0.37 -0.09,-0.75 -0.38,-1.1 -4.66,-5.65 -9.31,-11.31 -13.97,-16.95 -4.23,-5.12 -8.58,-10.08 -13.87,-14.12 -1.3,-0.99 -2.57,0.43 -2.38,1.74 -0.13,0.07 -0.27,0.12 -0.4,0.24 -5.85,5.19 -7.95,12.89 -12.18,19.23 -2.4,3.61 -5.06,6.93 -7.02,10.82 -2.03,4.03 -3.59,8.27 -5.14,12.5 -0.1,0.29 -0.12,0.54 -0.08,0.77 -1.14,2.09 -1.29,4.36 -2.11,6.68 -1.03,2.92 -2.45,5.78 -3.6,8.66 -2.68,6.69 -4.61,13.6 -6.69,20.49 -0.2,0.66 0.02,1.18 0.39,1.54 0.04,0.96 0.84,1.98 2.08,1.76 0.01,0 0.02,0 0.03,0 0.89,0.09 1.94,-0.16 2.69,-0.25 1.5,-0.18 3,-0.42 4.49,-0.71 1.64,-0.32 3.26,-0.71 4.88,-1.12 2.44,-0.43 4.88,-0.85 7.32,-1.3 5.74,-1.07 11.35,-3.25 16.77,-5.41 2.49,-0.99 4.9,-2.13 7.04,-3.75 0.1,-0.08 0.19,-0.16 0.28,-0.23 0.43,-0.24 0.87,-0.46 1.29,-0.71 5.29,-3.13 10.01,-7.71 14.05,-12.31zm-12.04 5.67l0 0c-0.07,0.05 -0.14,0.11 -0.2,0.17 -4.92,3.25 -10.7,5.55 -15.74,7.65 -2.34,0.97 -4.69,1.98 -7.13,2.68 -2.64,0.76 -5.32,0.96 -8.04,1.15 -3.83,0.26 -7.55,0.86 -11.21,1.85 0.72,-2.4 1.17,-4.82 1.67,-7.33 0.68,-3.44 2.36,-6.49 3.73,-9.7 2.64,-6.2 4.6,-12.65 6.92,-18.98 4.76,-12.97 12.73,-23.94 20.57,-35.17 1.57,1.98 3.16,3.98 4.97,5.67 1.19,1.11 2.65,1.87 3.8,3.01 1.18,1.18 1.98,2.68 2.97,4.01 3.46,4.68 8.43,8.21 11.02,13.51 -2.32,1.92 -4.95,2.99 -7.92,3.98 -3.49,1.16 -6.86,2.68 -10.07,4.48 -6.42,3.61 -12.2,8.22 -17.95,12.79 -0.77,0.62 -0.69,1.45 -0.21,2.04 0.19,0.63 0.69,1.19 1.51,1.28 8.98,0.97 18.22,2.56 27.29,1.81 -0.24,0.27 -0.48,0.54 -0.73,0.81 -1.7,1.48 -3.52,2.85 -5.25,4.29z"/>
    <path class="fil0" d="M92.88 251.79c1.78,-3.44 3.65,-6.94 5.99,-10.03 2.89,-3.81 5.9,-7.53 8.85,-11.29 1.38,-1.76 2.77,-3.53 4.16,-5.3 0.45,-0.57 0.91,-1.13 1.34,-1.71 1.41,-1.77 3.69,-3.7 3.19,-6.15 -0.2,-0.98 -0.5,-1.95 -0.83,-2.93 -1.23,-5.12 -3.52,-9.92 -6.65,-14.17 -0.25,-0.42 -0.48,-0.86 -0.73,-1.28 -0.15,-0.25 -0.35,-0.37 -0.57,-0.43 -0.11,-0.63 -0.77,-1.17 -1.47,-0.74 -4.36,2.71 -8.44,5.82 -12.19,9.27 -0.9,0.66 -1.8,1.33 -2.65,2.06 -2.34,2.03 -4.09,4.56 -5.91,7.03 -1.74,2.38 -3.49,4.75 -5.23,7.12 -0.9,-1.14 -1.78,-2.29 -2.67,-3.43 -1.53,-2.32 -3.12,-4.59 -4.81,-6.8 -1.41,-1.84 -2.86,-3.63 -4.37,-5.39 -0.77,-0.9 -1.66,-2.15 -2.63,-3.23 -0.36,-0.48 -0.73,-0.95 -1.08,-1.42 -0.51,-0.68 -1.32,-1.01 -2.11,-0.67 -1.07,-0.01 -1.97,0.85 -2.84,1.56 -1.83,1.49 -3.62,3.03 -5.4,4.58 -4.19,3.38 -8.25,6.91 -11.88,10.9 -0.84,0.91 -0.4,2.06 0.4,2.59 1.07,1.15 2.09,2.33 3.07,3.55 0.6,0.94 1.16,1.91 1.72,2.9 1.44,2.58 3.1,4.99 4.82,7.39 1.81,2.53 3.62,5.05 5.43,7.57 1.75,2.7 3.58,5.34 5.59,7.88 -1.65,7.37 -3.5,14.72 -4.46,22.21 -1.01,7.84 -2.01,15.67 -3.01,23.5 -0.37,0.27 -0.62,0.68 -0.62,1.27 0.02,2.5 0.12,5.02 -0.02,7.52 -0.15,2.56 -1.05,4.92 -1.51,7.42 -0.35,1.81 -0.81,4.36 0.6,5.84 1.48,1.57 3.78,0.92 5.65,0.71 2.61,-0.3 5.25,-0.4 7.88,-0.32 1.06,0.03 2.27,0.27 3.26,-0.22 1,-0.49 1.29,-1.55 1.65,-2.52 1.73,-4.74 3.07,-9.42 3.61,-14.46 0.31,-2.9 0.51,-5.81 1.23,-8.65 0.58,-2.27 1.39,-4.43 1.88,-6.7 0.25,-0.2 0.46,-0.46 0.54,-0.88 0.52,-2.55 1.15,-5.07 1.82,-7.59 2.87,-9.14 6.54,-18.05 10.96,-26.56zm-17.74 33.25l0 0c-1.49,6.28 -2.79,12.61 -4.26,18.9 -0.7,3.01 -1.38,6.11 -2.46,9.03 -0.13,0.53 -0.36,1.03 -0.68,1.48 -0.26,0.01 -0.52,0.01 -0.78,0.02 -0.68,0.18 -1.61,0.03 -2.33,0.04 -1.76,0.03 -3.51,0.06 -5.27,0.09 0.64,-10.73 2.3,-21.37 4.1,-31.97 0.44,-2.63 0.83,-5.3 1.44,-7.9 0.61,-2.55 1.68,-4.91 2.41,-7.41 1.44,-4.93 0.8,-10.36 3,-15.08 0.38,-0.81 0.17,-1.71 -0.53,-2.19 -0.02,-0.09 0,-0.17 -0.02,-0.25 -0.14,-0.42 -0.39,-0.7 -0.73,-0.96 0.03,0.02 0.06,0.05 0.09,0.07 -0.81,-0.63 -1.5,-1.4 -2.13,-2.21 -0.75,-1 -1.49,-2.07 -2.57,-2.71 -5.26,-7.35 -10.31,-14.85 -15.13,-22.5 -0.05,-0.09 -0.13,-0.14 -0.19,-0.21 0.79,-0.45 1.54,-0.96 2.29,-1.49 1.64,-1.15 3.28,-2.31 4.87,-3.52 2.51,-1.9 4.92,-3.92 7.06,-6.21 1.35,1.05 2.46,2.4 3.51,3.74 1.36,1.73 2.7,3.48 4.06,5.22 2.63,3.38 5.17,6.87 8.25,9.88 0.35,0.35 0.75,0.47 1.14,0.46 0.06,0.07 0.11,0.14 0.16,0.21 0.21,0.21 0.46,0.35 0.74,0.43 0.15,0.02 0.3,0.04 0.44,0.06 0.31,0 0.59,-0.08 0.85,-0.23 0.17,-0.12 0.35,-0.25 0.51,-0.4 0.15,-0.15 0.27,-0.33 0.39,-0.5 0.05,-0.06 0.08,-0.12 0.12,-0.19 0.09,-0.19 0.18,-0.39 0.25,-0.6 0.02,-0.07 0.04,-0.15 0.05,-0.23 0.03,-0.21 0.08,-0.43 0.08,-0.64 0,-0.22 -0.04,-0.44 -0.08,-0.64 1.17,-2.42 2.99,-4.48 4.78,-6.45 2.07,-2.27 4.15,-4.56 6.47,-6.57 3.61,-3.13 8.03,-5.09 11.81,-7.97 1.77,4.28 3.06,8.75 3.92,13.3 -5.09,5.06 -9.96,10.46 -14.46,16.04 -4.56,5.66 -7.58,12.71 -10.26,19.42 -5.32,9.51 -8.42,20.06 -10.91,30.64z"/>
    <path class="fil0" d="M175.72 235.52c-3.96,-2.58 -7.97,-5.08 -12.03,-7.51 -3.11,-1.85 -6.96,-3.69 -9.75,-6.24 0.68,-0.23 1.39,-0.42 1.98,-0.63 1.28,-0.45 2.55,-0.89 3.83,-1.32 2.44,-0.82 4.88,-1.61 7.33,-2.37 4.39,-1.36 9.39,-2.14 13.36,-4.53 0.19,-0.12 0.32,-0.26 0.43,-0.4 1.07,-0.34 2.15,-0.66 3.21,-1 0.74,-0.24 0.97,-1.11 0.45,-1.68 -5.35,-5.8 -10.7,-11.61 -16.04,-17.41 -0.06,-0.06 -0.13,-0.09 -0.19,-0.13 -0.37,-0.82 -1.32,-1.44 -2.36,-0.92 -0.53,0.26 -1.04,0.55 -1.57,0.82 -0.13,0.02 -0.27,0.03 -0.4,0.08 -0.89,0.29 -1.81,1.01 -2.62,1.47 -0.16,0.09 -0.31,0.18 -0.47,0.27 -5.99,3.22 -11.85,6.8 -17.37,10.71 -3.33,2.37 -6.73,4.35 -10.33,6.27 -3.15,1.68 -6.11,3.76 -7.83,6.97 -0.28,0.53 -0.25,1.03 -0.06,1.45 -0.36,0.33 -0.35,1.09 0.03,1.39 0.13,0.12 0.27,0.23 0.41,0.34 6.03,6.31 13.33,11.16 19.89,16.89 3.26,2.85 6.35,5.94 8.85,9.49 1.25,1.78 2.44,3.51 4.13,4.9 1.47,1.2 3.1,2.19 4.6,3.35 -0.21,1.09 -0.54,2.13 -0.93,3.13 -0.95,1.74 -1.9,3.47 -2.86,5.2 -0.97,1.44 -2.02,2.83 -3.05,4.23 -3.21,4.39 -5.23,9.23 -7.78,13.99 -2.56,4.76 -5.53,9.28 -7.95,14.11 -1.14,2.29 -2.06,4.64 -3,7.02 -0.04,0.11 -0.11,0.2 -0.15,0.31 -0.46,0.82 -0.92,1.63 -1.37,2.44 -0.97,1.43 -2.05,2.77 -2.91,4.31 -0.23,0.41 -0.24,0.81 -0.16,1.16 -0.28,0.51 -0.57,1.01 -0.85,1.52 -0.39,0.7 0.28,1.8 1.14,1.48 3.15,-1.2 6.31,-2.38 9.52,-3.43 2.06,-0.68 4.16,-1.1 6.32,-1.38 0.29,-0.04 0.6,-0.07 0.9,-0.09 1.08,-0.05 2.16,-0.08 3.25,-0.04 0.81,0.04 1.31,-0.42 1.51,-1 1.01,-0.91 1.86,-2.44 2.54,-3.28 0.1,-0.13 0.21,-0.26 0.31,-0.39 6.66,-7.57 12.9,-15.46 19.12,-23.4 1.54,-1.96 3.14,-3.89 4.5,-5.98 1.41,-2.16 2.45,-4.53 3.64,-6.82 0.51,-0.74 1.03,-1.47 1.55,-2.21 1.76,-2.49 3.52,-4.98 5.27,-7.48 1.15,-1.38 2.31,-2.76 3.42,-4.14 0.2,-0.24 0.3,-0.5 0.36,-0.76 1.02,-0.26 1.8,-1.29 1.01,-2.34 -5.29,-6.99 -13.6,-11.69 -20.83,-16.42zm-14.3 55.33l0 0c-1.06,0.83 -1.93,1.85 -2.71,2.95 -2.84,3.14 -5.56,6.39 -7.95,9.92 -0.28,0.42 -0.3,0.86 -0.17,1.26 -0.27,-0.02 -0.52,-0.05 -0.69,-0.05 -1.45,-0.03 -2.92,0.2 -4.33,0.52 -1.21,0.27 -2.4,0.63 -3.59,0.98 1.61,-2.8 2.37,-6.36 3.57,-9.12 2.35,-5.4 5.4,-10.47 8.64,-15.38 3.19,-4.85 6.6,-9.55 9.83,-14.37 2.52,-3.77 7.12,-10.33 4.02,-14.89 -0.33,-0.48 -0.78,-0.7 -1.24,-0.74 -0.06,-0.05 -0.09,-0.11 -0.16,-0.15 -3.23,-1.96 -5.89,-4.6 -8.45,-7.36 -2.8,-3 -5.6,-5.98 -8.57,-8.81 -5.9,-5.64 -12.1,-10.97 -18.22,-16.38 3.06,-2.79 6.82,-4.6 10.5,-6.5 4.2,-2.18 7.94,-4.83 11.72,-7.65 1.85,-1.39 3.72,-2.76 5.7,-3.95 1.08,-0.66 2.19,-1.27 3.34,-1.79 1.8,-0.82 2.77,-0.53 4.25,0.7 3.3,2.73 6.24,5.86 8.84,9.26 -8.81,3.07 -18.04,4.81 -26.61,8.59 -0.47,0.21 -0.72,0.54 -0.82,0.9 -1.15,1.04 -1.29,2.95 -0.49,4.24 0.25,0.41 0.58,0.73 0.96,0.97 3,2.7 6.54,4.61 9.99,6.66 3.89,2.3 7.73,4.67 11.52,7.12 3.69,2.37 7.33,4.81 10.92,7.32 2.89,2.02 7.29,4.28 8.54,7.84 -2.78,4.66 -6.46,8.7 -9.07,13.5 -2.67,4.95 -5.68,9.47 -9.37,13.72 -3.18,3.67 -6.58,7.15 -9.9,10.69z"/>
    <path class="fil0" d="M110.93 264.24c0.45,0.68 1.32,1.13 2.26,0.71 3.65,-1.66 7.27,-3.37 10.87,-5.14 1.8,-0.88 3.59,-1.78 5.38,-2.69 1.55,-0.79 3.4,-1.52 4.42,-3.02 1.07,-1.57 0.4,-3.04 -0.38,-4.58 -0.81,-1.58 -1.74,-3.11 -2.78,-4.55 -2.02,-2.8 -4.38,-5.29 -7.08,-7.43 -0.9,-0.71 -2.52,-0.63 -2.8,0.74 -0.45,2.17 -1.62,3.96 -2.87,5.75 -1.31,1.87 -2.61,3.75 -3.75,5.73 -2.32,3.99 -4,8.26 -4.58,12.86 -0.1,0.77 0.6,1.44 1.31,1.62zm14.87 -11.45l0 0c-3.29,1.87 -6.67,3.56 -10.11,5.15 2.29,-4.66 5.59,-8.82 8,-13.44 1.53,2.22 3.05,4.44 4.58,6.66 -0.72,0.48 -1.43,0.96 -2.14,1.44 -0.11,0.06 -0.22,0.13 -0.33,0.19z"/>
    <g>
     <path class="fil0" d="M137.96 249.93c-0.01,0.04 -0.02,0.08 -0.03,0.12 -0.01,-0.31 -0.02,-0.61 -0.02,-0.92 -0.01,-0.17 -0.07,-0.31 -0.14,-0.44 0,-0.49 0,-0.98 0,-1.47 0,-1.26 -1.94,-1.26 -1.96,0 0,0.45 -0.04,0.89 -0.05,1.34 -0.09,-1.1 -0.15,-2.2 -0.28,-3.29 -0.08,-0.74 -1.02,-1.19 -1.56,-0.85 -0.01,-0.27 -0.01,-0.54 -0.01,-0.81 -0.01,-1.09 -1.64,-1.34 -1.92,-0.26 -0.18,0.69 -0.37,1.37 -0.55,2.05 -0.34,-2.03 -0.81,-4.03 -1.43,-6.02 -0.3,-0.96 -1.56,-0.89 -1.89,0 -0.04,0.12 -0.09,0.24 -0.13,0.36 -0.13,-1.02 -0.27,-2.05 -0.44,-3.07 -0.15,-0.95 -1.69,-0.91 -1.88,0 -0.05,0.24 -0.1,0.48 -0.15,0.72 -0.19,-1.01 -0.38,-2.01 -0.64,-3 -0.2,-0.77 -1.41,-1.01 -1.79,-0.23 -0.23,0.48 -0.42,0.96 -0.63,1.45 -0.03,-1.54 -0.07,-3.09 -0.15,-4.63 -0.06,-1.08 -1.61,-1.36 -1.92,-0.26 -0.12,0.41 -0.21,0.82 -0.31,1.22 -0.06,-0.59 -0.11,-1.19 -0.18,-1.78 -0.11,-0.98 -1.73,-1.45 -1.92,-0.26 -0.39,2.39 -0.82,4.77 -1.28,7.14 -0.47,-0.49 -1.46,-0.41 -1.68,0.39 -0.49,1.71 -0.9,3.44 -1.29,5.17 -0.01,-0.94 -0.01,-1.89 -0.04,-2.83 -0.03,-1.09 -1.62,-1.34 -1.92,-0.26 -0.69,2.51 -1.29,5.03 -1.85,7.56 -0.25,-0.04 -0.51,0.01 -0.74,0.15 -0.04,-0.44 -0.06,-0.89 -0.11,-1.33 -0.13,-1.02 -1.64,-1.41 -1.93,-0.26 -0.9,3.57 -1.59,7.19 -2.14,10.82 -0.47,-0.42 -1.36,-0.26 -1.6,0.43 -0.44,0.06 -0.84,0.36 -0.88,0.92 -0.1,1.67 -0.26,3.33 -0.44,4.99 -0.08,0.1 -0.15,0.23 -0.17,0.39 -0.01,0.06 -0.02,0.11 -0.03,0.17 0.02,-0.83 0,-1.66 0.04,-2.49 0.06,-1.26 -1.89,-1.25 -1.95,0 -0.05,1.04 -0.15,2.06 -0.25,3.09 -0.24,0.01 -0.48,0.1 -0.67,0.27 -0.5,-0.05 -1.04,0.26 -1.11,0.93 -0.01,0.1 -0.02,0.2 -0.03,0.31 -0.55,-0.13 -1.21,0.16 -1.22,0.9 -0.02,2.76 -0.2,5.49 -0.52,8.2 -0.27,1.26 -0.53,2.52 -0.76,3.79 0.12,-1.81 0.21,-3.61 0.23,-5.42 0.01,-1.29 -1.82,-1.22 -1.96,0 -0.18,1.6 -0.33,3.21 -0.49,4.81 -0.42,0.06 -0.82,0.37 -0.88,0.92 -0.19,1.79 -0.42,3.57 -0.68,5.36 -0.49,-0.17 -1.09,0 -1.21,0.63 -0.09,0.42 -0.13,0.85 -0.2,1.27 -0.57,-0.24 -1.37,0.05 -1.42,0.85 -0.04,0.68 -0.04,1.35 -0.06,2.03 -0.59,3.97 -0.77,7.97 -0.47,12 0.03,0.4 0.27,0.69 0.58,0.84 0,0.19 0,0.37 0,0.56 0,1.13 1.58,1.3 1.92,0.26 0.17,-0.53 0.32,-1.06 0.49,-1.59 0.18,-0.06 0.34,-0.21 0.45,-0.46 0.08,-0.17 0.16,-0.34 0.23,-0.51 -0.01,0.65 -0.03,1.31 -0.04,1.96 -0.01,1.1 1.64,1.34 1.92,0.26 0.26,-0.98 0.48,-1.97 0.73,-2.96 0.31,0.6 1.21,0.77 1.69,0.08 -0.28,0.85 -0.55,1.7 -0.84,2.55 -0.36,1.05 1.26,1.72 1.79,0.75 0.93,-1.72 1.78,-3.48 2.59,-5.25 0,0.22 0,0.44 0,0.66 -0.03,1.09 1.66,1.34 1.92,0.26 0.16,-0.67 0.34,-1.33 0.51,-1.99 -0.01,0.88 -0.02,1.76 -0.03,2.64 0,1.08 1.71,1.37 1.93,0.26 0.37,-1.87 0.69,-3.75 1.04,-5.62 0.1,0.42 0.18,0.84 0.29,1.26 0.2,0.85 1.44,0.93 1.8,0.2 0.3,0.1 0.68,0.04 0.96,-0.16 0.07,0.25 0.13,0.5 0.19,0.76 0.26,0.99 1.58,0.85 1.89,0 0.4,-1.1 0.79,-2.2 1.19,-3.3 0.08,-0.2 0.27,-0.92 0.5,-1.55 0.05,0.3 0.23,0.53 0.47,0.65 0.24,0.6 0.49,1.19 0.79,1.77 0.38,0.71 1.63,0.59 1.79,-0.24 0.09,-0.45 0.22,-0.88 0.33,-1.32 0.57,0.36 1.49,0.01 1.53,-0.81 0.03,-0.61 0.15,-1.18 0.33,-1.72 0.08,0.21 0.15,0.42 0.23,0.63 0.34,0.9 1.43,0.89 1.83,0.07 0.01,0.02 0.01,0.03 0.01,0.04 0.38,0.98 1.93,0.92 1.93,-0.26 -0.01,-1.24 -0.01,-2.48 -0.01,-3.72 0.1,-0.22 0.21,-0.44 0.31,-0.66 0.05,0.88 0.1,1.76 0.14,2.63 0.06,0.96 1.31,1.35 1.83,0.5 0.53,-0.88 1,-1.79 1.45,-2.7 0.01,0.12 0.02,0.24 0.03,0.36 0.08,0.74 1.08,1.42 1.67,0.69 0.74,-0.9 1.42,-1.84 2.08,-2.79 0.12,0.82 0.19,1.66 0.18,2.52 -0.02,1.13 1.59,1.3 1.92,0.26 0.15,-0.48 0.3,-0.96 0.46,-1.44 0.5,-0.01 1.03,-0.35 1.03,-0.95 0,-0.82 0,-1.65 0.01,-2.48 0,-0.24 -0.08,-0.42 -0.2,-0.57 -0.03,-1.23 -1.88,-1.21 -1.95,0.03 0,0.05 0,0.09 0,0.14 -0.02,-0.08 -0.04,-0.16 -0.06,-0.24 -0.25,-0.81 -1.35,-0.96 -1.79,-0.24 -0.52,0.86 -1.07,1.68 -1.64,2.5 -0.06,-0.57 -0.11,-1.14 -0.17,-1.7 -0.1,-1.09 -1.54,-1.34 -1.92,-0.26 -0.34,0.97 -0.73,1.91 -1.16,2.82 -0.05,-0.98 -0.1,-1.96 -0.16,-2.94 -0.04,-0.89 -1.37,-1.43 -1.82,-0.49 -0.45,0.95 -0.91,1.89 -1.36,2.84 -0.08,0.01 -0.15,0.02 -0.22,0.04 -0.09,-1.09 -0.2,-2.17 -0.35,-3.26 -0.14,-1.05 -1.59,-0.79 -1.88,0 -0.27,0.75 -0.54,1.49 -0.81,2.23 -0.02,-0.93 -0.04,-1.87 -0.05,-2.81 -0.02,-1.09 -1.63,-1.34 -1.93,-0.26 -0.34,1.27 -0.68,2.54 -1.02,3.81 -0.01,-0.9 -0.01,-1.8 -0.02,-2.7 -0.01,-0.47 -0.35,-0.78 -0.75,-0.9 0.08,-0.94 0.11,-1.89 0.04,-2.84 -0.07,-0.86 -1.4,-1.47 -1.83,-0.5 -0.3,0.69 -0.6,1.36 -0.9,2.05 -0.36,-0.71 -1.74,-0.54 -1.87,0.49 -0.06,0.41 -0.11,0.82 -0.16,1.24 -0.21,-0.22 -0.49,-0.34 -0.77,-0.32 0.34,-2.05 0.68,-4.09 0.99,-6.14 0.32,-0.13 0.56,-0.42 0.59,-0.86 0.02,-0.44 0.09,-0.88 0.2,-1.3 0.01,-0.01 0.03,-0.03 0.04,-0.04 0.02,0.62 0.03,1.24 0.03,1.85 0.03,1.15 1.55,1.27 1.93,0.26 0.01,-0.02 0.01,-0.04 0.02,-0.06 0.24,1.07 1.8,1.01 1.91,-0.18 0.09,-0.9 0.24,-1.79 0.41,-2.68 0.11,-0.11 0.22,-0.26 0.27,-0.47 0.04,-0.18 0.09,-0.36 0.13,-0.54 0.23,-0.18 0.39,-0.46 0.42,-0.78 0,-0.33 0.01,-0.67 0.02,-1.01 0,-0.01 0,-0.01 0,-0.02 0.04,0.33 0.06,0.66 0.11,0.99 0.16,0.99 1.66,0.87 1.89,0 0.15,-0.55 0.29,-1.1 0.44,-1.65 0.18,0.58 0.39,1.15 0.63,1.72 0.36,0.85 1.54,0.46 1.79,-0.24 0.41,-1.12 0.82,-2.25 1.23,-3.38 0.29,0.64 0.58,1.28 0.84,1.95 0.28,0.74 1.35,1.02 1.78,0.23 1.05,-1.89 1.96,-3.84 2.8,-5.82 0.28,-0.07 0.51,-0.25 0.64,-0.51 0.3,0.95 0.6,1.9 0.9,2.84 0.25,0.79 1.36,0.99 1.79,0.24 0.53,-0.92 1.05,-1.83 1.58,-2.74 0.3,-0.09 0.57,-0.26 0.67,-0.61 0.08,-0.32 0.15,-0.64 0.24,-0.96 0,-0.01 0.01,-0.02 0.01,-0.03 0.35,0.69 0.7,1.37 1.04,2.06 0.31,0.62 1.39,0.66 1.69,0 0.06,-0.14 0.13,-0.28 0.19,-0.42 0.51,0.23 1.22,0.03 1.36,-0.6 0.31,-1.39 0.56,-2.79 0.79,-4.19 0.05,-0.13 0.11,-0.26 0.17,-0.38 0.37,-0.02 0.75,-0.23 0.91,-0.67 0.21,0.7 0.43,1.41 0.65,2.11 0.34,1.07 1.86,0.84 1.93,-0.26 0.14,-2.62 -0.11,-5.14 -0.74,-7.68 -0.24,-0.99 -1.58,-0.87 -1.89,0zm-9.2 11.42l0 0c0.03,-0.02 0.06,-0.05 0.08,-0.07 -0.02,0.04 -0.04,0.07 -0.06,0.11 -0.01,-0.01 -0.01,-0.03 -0.02,-0.04zm0.68 -1.86l0 0c0.04,0.19 0.07,0.38 0.11,0.57 -0.16,0.26 -0.31,0.53 -0.47,0.8 0.14,-0.45 0.24,-0.91 0.36,-1.37zm-9.09 -16.66l0 0c0.04,-0.71 0.1,-1.41 0.17,-2.11 -0.01,0.75 0,1.5 -0.02,2.25 -0.04,1.3 1.8,1.22 1.95,0 0.22,-1.74 0.63,-3.41 1.2,-5.03 0.32,1.67 0.59,3.36 0.73,5.08 0.09,1.02 1.69,1.42 1.93,0.26 0.02,-0.1 0.04,-0.19 0.06,-0.29 0.02,0.36 0.07,0.71 0.09,1.07 0.08,1.12 1.54,1.3 1.92,0.25 0.19,-0.49 0.37,-0.98 0.55,-1.47 0.61,2.56 1.01,5.15 1.15,7.81 0.05,0.92 1.23,1.27 1.74,0.63 -0.29,1.54 -0.6,3.08 -0.96,4.61 -0.08,-0.79 -0.17,-1.57 -0.19,-2.38 -0.03,-1.3 -1.79,-1.21 -1.95,0 -0.09,0.67 -0.24,1.32 -0.36,1.98 -0.03,-0.2 -0.05,-0.39 -0.08,-0.59 -0.14,-0.99 -1.66,-0.87 -1.89,0 -0.18,0.68 -0.37,1.37 -0.55,2.05 -0.36,-0.72 -1.61,-0.82 -1.82,0.14 -0.37,1.73 -0.82,3.43 -1.29,5.14 -0.16,-0.64 -0.32,-1.27 -0.47,-1.91 -0.25,-1 -1.58,-0.86 -1.89,0 -0.02,0.05 -0.04,0.11 -0.06,0.16 -0.02,-0.04 -0.04,-0.09 -0.06,-0.12 -0.37,-0.62 -1.34,-0.67 -1.69,0 -0.36,0.66 -0.71,1.32 -1.06,1.99 -0.5,-0.3 -1.2,-0.2 -1.4,0.54 0,0.01 0,0.02 0,0.02l0 0c-0.01,-0.49 -0.04,-0.99 -0.03,-1.48 0.01,-0.58 -0.45,-0.91 -0.93,-0.95 -0.27,-0.69 -0.54,-1.38 -0.82,-2.08 -0.15,-0.39 -0.53,-0.64 -0.91,-0.68 0.64,-1.8 1.22,-3.62 1.73,-5.45 0.08,-0.1 0.15,-0.23 0.19,-0.39 1.19,-4.54 2.22,-9.1 3.13,-13.69 0.02,1.54 0.01,3.09 -0.07,4.64 -0.06,1.26 1.9,1.25 1.96,0zm-2.32 43.14l0 0c-0.09,-0.08 -0.18,-0.13 -0.28,-0.17 0.08,-0.24 0.17,-0.47 0.25,-0.71 0.02,0.29 0.02,0.59 0.03,0.88zm-3.2 1.2l0 0c0.03,-0.14 0.07,-0.27 0.1,-0.4 0.01,0.11 0.01,0.21 0.01,0.31 -0.04,0.03 -0.08,0.05 -0.11,0.09zm-7.93 -1.55l0 0c-0.14,0.26 -0.28,0.52 -0.43,0.77 0.09,-0.51 0.19,-1.02 0.28,-1.53 0.05,0.19 0.1,0.38 0.15,0.57 0,0.07 0,0.13 0,0.19zm3.86 -29.22l0 0c0.21,0.29 0.57,0.43 0.91,0.38 -0.28,0.79 -0.58,1.58 -0.88,2.36 -0.01,-0.91 -0.02,-1.83 -0.03,-2.74zm-11.45 28.73l0 0c0.06,0.04 0.12,0.07 0.18,0.08 -0.1,0.43 -0.2,0.85 -0.3,1.27 -0.01,-0.22 -0.02,-0.44 -0.02,-0.66 0.04,-0.22 0.09,-0.45 0.14,-0.69zm2.57 1.48l0 0c0.17,-0.77 0.31,-1.53 0.44,-2.31 -0.01,0.54 -0.01,1.08 -0.02,1.62 -0.11,0.19 -0.23,0.38 -0.34,0.57 -0.03,0.04 -0.05,0.08 -0.08,0.12zm5.79 -20.4l0 0c-0.07,-0.04 -0.14,-0.07 -0.21,-0.09 -0.01,-0.51 -0.02,-1.03 -0.06,-1.55 0,-0.12 -0.04,-0.22 -0.08,-0.32 0.02,-0.25 0.03,-0.5 0.04,-0.75 0.04,-0.12 0.07,-0.24 0.1,-0.35 0.07,0.86 0.14,1.73 0.21,2.6 0,0.16 0,0.31 0,0.46zm-3.36 14.22l0 0c0,-0.39 0,-0.78 0.01,-1.16 0.11,-0.12 0.21,-0.25 0.25,-0.45 0.19,-0.76 0.31,-1.53 0.47,-2.3 0.16,-0.04 0.31,-0.16 0.45,-0.3 -0.4,1.41 -0.8,2.81 -1.18,4.21zm-9.46 3.83l0 0c0.15,0.16 0.33,0.29 0.54,0.34 0,0.02 -0.01,0.04 -0.01,0.06 -0.32,1.12 -0.66,2.23 -1.03,3.34 0,-0.08 0,-0.17 0,-0.25 0.19,-1.16 0.35,-2.33 0.5,-3.49zm18.52 -19.91l0 0c-0.1,-1.01 -0.21,-2.02 -0.32,-3.03 0.06,-0.12 0.13,-0.24 0.19,-0.35 0.2,0.5 0.4,1 0.59,1.5 -0.15,0.62 -0.3,1.25 -0.46,1.88zm-5.79 -11.48l0 0c-0.02,0.11 -0.05,0.22 -0.07,0.34 0.03,-0.14 0.05,-0.29 0.07,-0.43 0,0.03 0,0.06 0,0.09zm1.7 38.19l0 0c0.16,-0.05 0.3,-0.13 0.43,-0.25 0,0.14 0,0.29 0,0.43 0,0.04 0.01,0.07 0.01,0.11 -0.07,0.2 -0.14,0.4 -0.21,0.6 -0.08,-0.29 -0.15,-0.59 -0.23,-0.89zm9.18 -25.5l0 0c-0.05,-0.21 -0.07,-0.43 -0.11,-0.64 0.35,-0.67 0.71,-1.33 1.06,-2 0,0.01 0,0.01 0.01,0.02 -0.32,0.87 -0.64,1.75 -0.96,2.62zm14.31 -8.14l0 0c-0.06,-0.1 -0.15,-0.16 -0.22,-0.22 0.14,-0.61 0.29,-1.21 0.42,-1.82 0.28,1.22 0.56,2.42 0.84,3.64 -0.04,0.08 -0.08,0.16 -0.11,0.24 -0.32,-0.62 -0.62,-1.23 -0.93,-1.84z"/>
     <path class="fil0" d="M186.03 253.84c0,-0.52 0,-1.04 -0.01,-1.56 -0.01,-1.02 -1.29,-1.27 -1.82,-0.49 -0.21,0.29 -0.41,0.59 -0.62,0.89 -0.5,-0.37 -1.28,-0.21 -1.51,0.5 -0.43,1.28 -0.85,2.55 -1.28,3.83 -0.02,-0.66 -0.02,-1.32 -0.06,-1.98 0,-1.42 0,-2.84 0.01,-4.25 0,-0.47 -0.31,-0.77 -0.68,-0.89 -0.09,-0.51 -0.16,-1.01 -0.27,-1.51 -0.2,-0.95 -1.67,-0.92 -1.89,0 -0.47,2 -0.94,3.99 -1.41,5.99 -0.09,-2.84 -0.19,-5.67 -0.28,-8.5 -0.03,-1.06 -1.68,-1.38 -1.92,-0.26 -0.37,1.72 -0.73,3.44 -1.1,5.16 -0.14,-0.07 -0.29,-0.1 -0.45,-0.09 -0.2,-2.39 -0.46,-4.78 -0.8,-7.16 -0.15,-1 -1.66,-0.87 -1.89,0 -0.55,2.05 -1.11,4.1 -1.66,6.15 -0.02,-2.44 -0.04,-4.88 -0.05,-7.32 -0.01,-1.07 -1.72,-1.38 -1.92,-0.26 -0.24,1.23 -0.53,2.45 -0.81,3.67 -0.01,-1.44 -0.02,-2.88 -0.03,-4.32 0,-0.69 -0.53,-0.98 -1.04,-0.92 -0.01,-1.08 -0.02,-2.16 -0.03,-3.23 -0.01,-1.3 -1.8,-1.22 -1.96,0 -0.14,1.16 -0.28,2.32 -0.42,3.49 -0.03,-1.01 -0.06,-2.02 -0.12,-3.03 -0.02,-0.28 -0.13,-0.5 -0.29,-0.66 0,-0.55 0,-1.09 0.01,-1.64 0,-1.29 -1.81,-1.21 -1.96,0 -0.02,0.13 -0.03,0.25 -0.05,0.37 -0.37,-1.46 -0.73,-2.92 -1.1,-4.39 -0.29,-1.13 -1.83,-0.79 -1.92,0.26 -0.05,0.51 -0.1,1.02 -0.15,1.53 -0.26,-0.34 -0.71,-0.46 -1.09,-0.35 -0.05,-0.11 -0.09,-0.22 -0.14,-0.33 -0.1,-0.23 -0.26,-0.37 -0.43,-0.44 -0.07,-0.16 -0.13,-0.32 -0.2,-0.48 -0.35,-0.78 -1.42,-0.53 -1.73,0.12 -0.01,-0.11 -0.01,-0.21 -0.02,-0.31 -0.05,-0.66 -0.61,-0.97 -1.12,-0.93 -0.02,-0.08 -0.03,-0.15 -0.04,-0.22 -0.11,-0.6 -0.66,-0.78 -1.15,-0.66 -0.06,-0.71 -0.15,-1.42 -0.29,-2.13 -0.2,-0.98 -1.32,-0.84 -1.75,-0.18 -0.22,0.16 -0.38,0.4 -0.38,0.71 0,0.28 0.04,0.55 0.05,0.83 -0.02,0 -0.03,0 -0.04,-0.01 -0.07,-0.23 -0.13,-0.47 -0.21,-0.7 -0.09,-0.31 -0.36,-0.53 -0.66,-0.63 -0.13,-0.1 -0.28,-0.16 -0.44,-0.18 -0.07,-0.54 -0.13,-1.08 -0.2,-1.63 0.06,-0.45 0.09,-0.9 0.16,-1.35 0.08,-0.48 -0.16,-0.85 -0.48,-1.05 -0.22,-0.72 -1.07,-0.93 -1.56,-0.56 -0.16,-0.82 -0.35,-1.64 -0.56,-2.46 0.05,-0.06 0.12,-0.09 0.16,-0.17 0.18,-0.37 0.33,-0.74 0.5,-1.12 0.34,-0.05 0.65,-0.25 0.76,-0.58 0.5,0.43 1.4,0.38 1.58,-0.42 0.38,0.65 1.54,0.43 1.77,-0.31 0.51,-1.58 0.98,-3.17 1.45,-4.76 0.02,0.18 0.04,0.35 0.05,0.53 0.07,0.64 0.83,1.16 1.39,0.95 0.35,0.71 1.62,0.7 1.79,-0.15 0.5,0.42 1.41,0.35 1.6,-0.44 0.17,-0.76 0.35,-1.51 0.53,-2.27 0.01,0.01 0.01,0.02 0.02,0.03 0.02,0.08 0.05,0.17 0.07,0.25 0.23,0.88 1.71,0.97 1.88,0 0.23,-1.29 0.47,-2.57 0.7,-3.86 0.09,1.04 0.19,2.08 0.28,3.12 0.09,1.02 1.7,1.43 1.92,0.27 0.11,-0.55 0.19,-1.09 0.28,-1.63 0.16,-0.08 0.3,-0.2 0.39,-0.35 0.12,0.54 0.24,1.09 0.36,1.64 0.25,1.15 1.82,0.76 1.92,-0.26 0.07,-0.61 0.17,-1.22 0.25,-1.82 0.07,0.13 0.16,0.24 0.28,0.32 0,0.29 0,0.57 0,0.85 0,1.23 1.8,1.25 1.94,0.1 0.26,0.1 0.54,0.12 0.79,-0.06 0.59,-0.42 0.89,-0.95 1.16,-1.61 0.04,-0.09 0.06,-0.19 0.09,-0.28 0.01,0.12 0.02,0.23 0.02,0.35 0.05,1.25 1.96,1.26 1.96,0 0,-0.13 0,-0.25 0,-0.38 0.07,-0.05 0.13,-0.11 0.19,-0.18 0,0.17 0.01,0.34 0.01,0.51 0.03,1.26 1.92,1.26 1.96,0 0.04,-1.2 0.03,-2.4 0.02,-3.59 0.05,-0.53 0.06,-1.05 0.01,-1.58 -0.04,-0.52 -0.42,-0.98 -0.98,-0.98 -0.39,0 -0.75,0.26 -0.9,0.61 -0.05,0.06 -0.08,0.14 -0.12,0.21 -0.07,-0.11 -0.13,-0.21 -0.19,-0.32 0.01,-0.24 -0.01,-0.48 0,-0.72 0,-1 -1.2,-1.19 -1.72,-0.6 -0.18,0.08 -0.35,0.21 -0.45,0.39 -0.37,0.67 -0.52,1.44 -0.67,2.2 -0.05,-0.86 -0.08,-1.71 -0.17,-2.57 -0.06,-0.52 -0.41,-0.97 -0.98,-0.97l0 0c0,-0.1 0,-0.19 0,-0.28 0,-0.24 -0.09,-0.42 -0.21,-0.57 -0.04,-0.77 -0.06,-1.54 -0.12,-2.31 -0.08,-1.03 -1.67,-1.41 -1.92,-0.26 -0.18,0.78 -0.3,1.57 -0.46,2.35 -0.46,-0.58 -1.45,-0.66 -1.68,0.27 -0.09,0.38 -0.18,0.75 -0.28,1.13 -0.15,-0.23 -0.38,-0.36 -0.64,-0.38 -0.02,-0.87 -0.01,-1.74 0.01,-2.61 0.03,-1.12 -1.62,-1.31 -1.92,-0.27 -0.21,0.7 -0.37,1.4 -0.57,2.1 -0.23,0.09 -0.42,0.28 -0.48,0.62 -0.21,1.15 -0.41,2.3 -0.62,3.45 -0.15,0.6 -0.28,1.21 -0.42,1.82 -0.16,-0.2 -0.36,-0.34 -0.59,-0.41 -0.22,-0.83 -0.44,-1.67 -0.66,-2.51 -0.22,-0.88 -1.71,-0.97 -1.88,0 -0.29,1.71 -0.59,3.41 -0.88,5.12 -0.05,0.1 -0.09,0.21 -0.14,0.31 -0.11,-0.72 -0.23,-1.43 -0.32,-2.16 -0.05,-0.45 -0.39,-0.77 -0.76,-0.9 -0.32,-0.8 -1.62,-1.04 -1.84,0.01 -0.2,0.92 -0.39,1.84 -0.59,2.75 -0.42,-0.68 -1.55,-0.84 -1.76,0.16 -0.07,0.31 -0.14,0.62 -0.21,0.93 -0.43,-0.13 -0.96,0.01 -1.19,0.4 -0.43,-0.05 -0.86,0.15 -0.95,0.69 -0.21,1.31 -0.42,2.62 -0.63,3.94 -0.18,-0.77 -0.32,-1.55 -0.39,-2.36 -0.09,-0.88 -1.34,-1.43 -1.83,-0.49 -0.02,0.05 -0.05,0.1 -0.07,0.15 -0.42,0.02 -0.85,0.27 -0.97,0.7 -0.11,0.42 -0.23,0.85 -0.34,1.28 -0.33,-0.03 -0.67,0.08 -0.85,0.45 -0.02,0.04 -0.04,0.08 -0.07,0.12 -0.06,-0.55 -0.12,-1.1 -0.18,-1.65 -0.12,-0.98 -1.74,-1.45 -1.93,-0.26 -0.03,0.23 -0.07,0.46 -0.1,0.69 -0.51,-0.55 -1.7,-0.35 -1.73,0.64 -0.02,0.62 -0.04,1.25 -0.06,1.87 -0.16,0.06 -0.31,0.15 -0.4,0.3 -0.56,-0.2 -1.36,0.18 -1.4,0.9 -0.01,0.01 -0.01,0.02 -0.01,0.03 -0.25,-0.62 -1.16,-0.8 -1.6,-0.37 -0.02,-0.02 -0.04,-0.04 -0.05,-0.06 -0.55,-0.74 -1.82,-0.56 -1.82,0.49 -0.01,1.76 -0.02,3.53 -0.03,5.29 0,0.88 0.94,1.13 1.52,0.78 0.03,0.36 0.05,0.71 0.11,1.06 0.09,0.66 0.89,0.85 1.42,0.58 0.01,0.14 0.03,0.27 0.08,0.38 0.01,0.53 0.01,1.06 0.02,1.6 0.01,0.97 1.32,1.32 1.82,0.49 0.04,-0.07 0.09,-0.14 0.13,-0.21 0.22,0.33 0.64,0.45 1.03,0.37 0.35,0.75 1.53,0.51 1.8,-0.23 0.03,-0.08 0.04,-0.15 0.07,-0.23 0.03,1.41 0.07,2.81 0.1,4.21 0.03,1.06 1.71,1.39 1.92,0.26 0.1,-0.52 0.17,-1.05 0.26,-1.57 0.06,1.14 0.11,2.29 0.13,3.44 0.01,1.06 1.74,1.38 1.92,0.26 0.01,-0.09 0.02,-0.17 0.03,-0.26 0,0 0,0 0.01,0 0,0 -0.01,0 -0.01,-0.01 0.07,-0.42 0.11,-0.84 0.17,-1.27 0.14,-0.01 0.28,-0.05 0.41,-0.13 -0.03,0.8 -0.05,1.6 -0.08,2.39 -0.04,1.28 1.86,1.24 1.96,0 0,-0.02 0,-0.05 0,-0.09 0.08,0.49 0.15,0.98 0.21,1.47 0.06,0.52 0.42,0.82 0.82,0.9 0.01,0.54 0.02,1.07 0.01,1.61 -0.02,1.27 1.88,1.25 1.96,0 0,-0.05 0,-0.09 0.01,-0.14 0.23,0.02 0.46,-0.03 0.66,-0.16 0.01,0.06 0.02,0.12 0.03,0.18 0.08,0.42 0.37,0.64 0.71,0.69 0.02,0.14 0.03,0.29 0.04,0.44 0.03,0.22 0.13,0.39 0.25,0.54 0.04,0.19 0.09,0.38 0.13,0.58 0.11,0.59 0.7,0.79 1.19,0.66 0.07,0.14 0.13,0.28 0.19,0.43 0.05,0.7 0.1,1.41 0.15,2.11 0.06,0.82 1.06,1.21 1.61,0.79 0.27,0.33 0.52,0.68 0.84,0.97 0.51,0.47 1.46,0.32 1.63,-0.43 0.15,-0.65 0.26,-1.31 0.38,-1.96 0.03,0.14 0.07,0.27 0.1,0.41 0.05,0.19 0.13,0.33 0.23,0.44 0.01,2 0.03,4.01 0.04,6.01 0,1.08 1.68,1.37 1.92,0.26 0.2,-0.92 0.33,-1.85 0.5,-2.79 0.16,-0.11 0.3,-0.27 0.36,-0.47 0.11,-0.35 0.22,-0.69 0.33,-1.04 -0.01,0.74 -0.01,1.47 -0.01,2.2 0,0.6 0.44,0.91 0.91,0.93 0.09,0.94 0.17,1.88 0.22,2.83 0.05,1.1 1.31,1.2 1.78,0.47 0,0.3 0,0.61 0.01,0.91 0,0.71 0.57,1 1.09,0.92 0.28,0.81 1.56,0.86 1.86,-0.07 0.31,-0.96 0.55,-1.92 0.83,-2.88 0.01,2.16 0.03,4.33 0.05,6.49 0,0.46 0.29,0.76 0.65,0.89 0,0.48 0,0.96 0,1.44 -0.03,0.92 -0.08,1.83 -0.13,2.74 0.01,-0.7 0,-1.41 0.02,-2.11 0.03,-1.29 -1.81,-1.22 -1.96,0 -0.13,1.1 -0.27,2.21 -0.4,3.32 -0.5,-0.53 -1.48,-0.55 -1.62,0.33 -0.07,0.43 -0.17,0.85 -0.25,1.28 -0.23,0.15 -0.41,0.4 -0.42,0.77 -0.01,0.63 -0.07,1.26 -0.09,1.89 -0.32,1.46 -0.67,2.92 -1.07,4.36 0.02,-0.53 0.02,-1.06 0,-1.6 -0.04,-1.09 -1.6,-1.34 -1.92,-0.26 -0.18,0.64 -0.32,1.28 -0.47,1.92 -0.45,-0.3 -1.09,-0.3 -1.36,0.29 -0.03,0.07 -0.05,0.16 -0.09,0.23 0,0 0,0 -0.01,0 -0.02,0.07 -0.04,0.13 -0.06,0.19 -0.13,0.31 -0.23,0.62 -0.35,0.93 -0.24,0.15 -0.42,0.4 -0.41,0.78 0,0.1 0,0.2 0,0.3 -0.18,0.54 -0.3,1.08 -0.43,1.63 -0.35,1.01 -0.74,2.01 -1.13,3 -0.22,0.11 -0.4,0.3 -0.46,0.61 -0.02,0.13 -0.04,0.25 -0.06,0.38 -0.04,-1.02 -1.7,-1.24 -1.91,-0.18 -0.36,1.76 -0.78,3.51 -1.24,5.24 -0.45,-0.7 -1.77,-0.55 -1.79,0.51 -0.03,1.16 -0.03,2.33 -0.03,3.5 -0.23,0.48 -0.47,0.96 -0.71,1.43 -0.08,-0.11 -0.18,-0.19 -0.29,-0.26 0,-0.33 -0.03,-0.65 -0.02,-0.99 0.04,-1.16 -1.56,-1.25 -1.92,-0.26 -1.05,2.88 -2.17,5.74 -3.32,8.58 -0.22,0.16 -0.39,0.4 -0.41,0.74 0,0.09 -0.01,0.18 -0.01,0.27 -0.61,1.47 -1.2,2.95 -1.83,4.42 -0.5,1.14 1.19,2.14 1.69,0.99 0.02,-0.07 0.05,-0.13 0.08,-0.19 0.05,0.07 0.12,0.13 0.2,0.19 0.04,0.47 0.05,0.94 0.09,1.41 0.1,1.04 1.63,1.4 1.92,0.26 0.21,-0.8 0.42,-1.6 0.63,-2.4 0,0.05 0.01,0.1 0.02,0.15 0.13,0.96 1.71,0.91 1.89,0 0.25,-1.32 0.42,-2.65 0.62,-3.98 0.06,0.52 0.13,1.04 0.19,1.56 0.11,0.87 1.36,1.33 1.8,0.6 0,0.02 0,0.04 0,0.05 0.1,1.04 1.65,1.41 1.92,0.26 0.9,-3.73 1.72,-7.48 2.47,-11.25 0.04,1.88 0.06,3.74 0.14,5.61 0.04,1.07 1.66,1.38 1.92,0.26 0.34,-1.45 0.61,-2.91 0.87,-4.38 0.51,0.06 1.08,-0.25 1.16,-0.92 0.08,-0.63 0.13,-1.26 0.19,-1.9 0.06,-0.14 0.11,-0.28 0.16,-0.43 0.14,0.79 0.28,1.59 0.44,2.38 0.19,0.94 1.69,0.93 1.89,0 0.7,-3.34 1.25,-6.71 1.71,-10.08 0.41,0.22 0.99,0.1 1.3,-0.31 0,0.53 -0.02,1.06 -0.02,1.58 0.02,1.07 1.71,1.38 1.93,0.27 0.26,-1.39 0.4,-2.78 0.47,-4.16 0.27,-0.07 0.51,-0.27 0.6,-0.67 0.08,-0.37 0.18,-0.75 0.26,-1.12 0.43,0.4 1.26,0.42 1.56,-0.18 0.1,-0.19 0.19,-0.38 0.29,-0.57 0.47,0.12 1.01,-0.06 1.15,-0.66 0.06,-0.26 0.1,-0.52 0.16,-0.77 0.24,-0.1 0.44,-0.29 0.49,-0.64 0.02,-0.08 0.02,-0.17 0.04,-0.26l0 0c0,-0.01 0,-0.01 0,-0.02 0.09,-0.58 0.16,-1.16 0.21,-1.74 0.58,-1.15 1.16,-2.3 1.74,-3.45 0.03,0.34 0.05,0.69 0.08,1.03 0.09,1.11 1.54,1.32 1.92,0.26 0.68,-1.9 1.31,-3.83 1.93,-5.76 0.06,1.18 0.12,2.35 0.18,3.53 0.06,1.11 1.57,1.32 1.92,0.26 1.18,-3.54 2.36,-7.08 3.54,-10.62 0.01,0.49 0.01,0.99 -0.04,1.51 -0.09,1.09 1.7,1.34 1.93,0.26 0.06,-0.33 1.03,-3.97 0.52,-4.03 0,0 0,0 0,0 0.06,-0.01 0.11,0.01 0.17,-0.01 0.03,0 0.06,-0.01 0.09,-0.02 0.65,-0.19 0.8,-0.76 0.62,-1.23zm-7.07 8.66l0 0c0,-0.05 0,-0.1 0,-0.14 0.01,0.01 0.02,0.03 0.03,0.05 -0.01,0.03 -0.01,0.06 -0.03,0.09zm-32.18 31.84l0 0c-0.01,0.15 -0.02,0.3 -0.04,0.45 -0.35,0.7 -0.7,1.41 -1.05,2.11 0.37,-0.92 0.7,-1.86 1.06,-2.79 0.01,0.08 0.02,0.15 0.03,0.23zm9.65 -9.96l0 0c0.01,0 0.02,0 0.03,0 -0.02,0.3 -0.01,0.59 -0.04,0.89 0,-0.3 0.01,-0.59 0.01,-0.89zm14.2 -35.49l0 0c0.07,0.69 0.13,1.39 0.19,2.09 -0.17,-0.2 -0.41,-0.31 -0.67,-0.32 0.16,-0.59 0.32,-1.18 0.48,-1.77zm3.48 6.93l0 0c0.14,-0.63 0.27,-1.27 0.41,-1.9 0.08,2.41 0.15,4.82 0.23,7.24 -0.06,0.13 -0.12,0.25 -0.19,0.38 -0.15,-1.91 -0.3,-3.81 -0.45,-5.72zm-13.53 28.69l0 0c-0.06,0.4 -0.15,0.8 -0.22,1.21 -0.02,-0.14 -0.04,-0.28 -0.06,-0.42 0.09,-0.26 0.19,-0.53 0.28,-0.79zm11.57 -18.17l0 0c0.2,-1.2 0.38,-2.4 0.55,-3.6 0.06,0.72 0.11,1.44 0.17,2.16 -0.24,0.48 -0.48,0.96 -0.72,1.44z"/>
     <path class="fil0" d="M88.24 241.04c0.19,0.75 1.01,0.86 1.52,0.48 0.43,0.31 1.17,0.2 1.47,-0.28 1.46,-2.38 2.7,-4.87 3.85,-7.41 0.32,0.67 1.37,0.99 1.73,0.16 0.69,-1.58 0.97,-3.2 0.85,-4.87 0.31,-0.7 0.61,-1.41 0.91,-2.11 0.19,0.03 0.38,0.02 0.56,-0.04 0.07,1.04 1.8,0.97 1.94,-0.19 0.13,-1.1 0.12,-2.19 0.01,-3.28 0.13,-0.81 0.27,-1.62 0.4,-2.43 0.53,0.28 1.26,0.1 1.39,-0.59 0.36,0.66 1.51,0.55 1.77,-0.14 0.04,0.11 0.09,0.22 0.13,0.33 0.3,0.79 1.72,1.05 1.89,0 0.08,-0.56 0.14,-1.11 0.22,-1.67 0.19,-0.15 0.33,-0.36 0.38,-0.62 0.4,-0.07 0.74,-0.37 0.75,-0.92 0,-0.57 0.02,-1.15 0.05,-1.71 0.21,0.49 0.73,0.68 1.17,0.58 0.59,0.04 1.21,-0.42 1.02,-1.2 -0.09,-0.37 -0.22,-0.73 -0.32,-1.1 0.02,-2.44 0,-4.89 -0.1,-7.33 -0.05,-1.26 -2,-1.26 -1.96,0 0.03,0.59 0.03,1.17 0.05,1.76 -0.15,-0.31 -0.25,-0.64 -0.4,-0.95 -0.04,-1.08 -0.07,-2.17 -0.15,-3.26 -0.1,-1.24 -2.06,-1.26 -1.96,0 0.01,0.07 0.01,0.13 0.01,0.2 -0.51,0.1 -0.92,0.53 -0.69,1.15 0.28,0.8 0.57,1.59 0.86,2.38 0.02,1.03 0,2.06 -0.02,3.1 -0.31,-0.77 -0.61,-1.55 -0.96,-2.3 -0.29,-0.63 -1.4,-0.65 -1.69,0 -0.05,0.13 -0.08,0.26 -0.13,0.38 -0.15,-0.3 -0.3,-0.6 -0.45,-0.9 -0.46,-0.9 -1.8,-0.43 -1.83,0.49 -0.06,2.01 -0.04,4.02 0.04,6.01 -0.05,0.36 -0.11,0.71 -0.17,1.07 -0.12,-1.19 -0.27,-2.37 -0.45,-3.55 0,0 0,-0.01 0,-0.01 0,0 0,0 0,0 -0.01,-0.08 -0.02,-0.17 -0.03,-0.26 -0.17,-1.14 -1.86,-0.78 -1.92,0.26 0,0.02 0,0.03 -0.01,0.05 -0.13,0.15 -0.22,0.34 -0.22,0.61 0,1.74 0,3.48 0.01,5.22 -0.33,-1.64 -0.65,-3.27 -0.98,-4.91 -0.13,-0.66 -0.76,-0.81 -1.26,-0.61 -0.53,-0.23 -1.22,-0.1 -1.32,0.6 -0.28,2.01 -0.56,4.03 -0.85,6.04 -0.02,-0.86 -0.05,-1.72 -0.07,-2.57 -0.04,-1.29 -1.81,-1.22 -1.96,0 -0.14,1.13 -0.32,2.25 -0.48,3.37 -0.01,-0.63 -0.01,-1.26 -0.02,-1.9 -0.02,-1.08 -1.66,-1.36 -1.92,-0.26 -0.88,3.62 -1.75,7.24 -2.62,10.86 0,-1.9 0.02,-3.8 0.1,-5.69 0.06,-1.28 -1.83,-1.23 -1.96,0 -0.09,0.89 -0.18,1.8 -0.28,2.7 -0.15,-0.1 -0.31,-0.15 -0.49,-0.16 0.03,-1.13 -1.7,-1.59 -1.88,-0.39 -0.17,1.15 -0.35,2.29 -0.54,3.44 -0.33,-0.18 -0.75,-0.17 -1.06,0.04 -0.11,-1.89 -0.16,-3.78 -0.13,-5.67 0.02,-1.27 -1.88,-1.25 -1.96,0 -0.1,1.78 -0.25,3.56 -0.42,5.34 0,-1.61 0,-3.21 0.01,-4.82 0,-1.25 -1.95,-1.26 -1.96,0 -0.01,1.02 -0.06,2.03 -0.1,3.05 -0.21,-0.14 -0.47,-0.19 -0.72,-0.16 0.35,-2.26 0.71,-4.53 1.06,-6.8 0.19,-1.23 -1.69,-1.76 -1.89,-0.52 -0.09,0.61 -0.19,1.22 -0.28,1.83 -0.05,-0.4 -0.11,-0.8 -0.16,-1.21 -0.02,-0.22 -0.02,-0.45 -0.03,-0.67 -0.02,-0.13 -0.05,-0.25 -0.1,-0.36 -0.03,-0.18 -0.05,-0.38 -0.08,-0.57 -0.15,-1.05 -1.59,-0.8 -1.88,0 -0.22,0.59 -0.45,1.17 -0.68,1.75 0.01,-1.15 0,-2.31 0.03,-3.47 0.02,-0.59 -0.38,-0.89 -0.83,-0.93 -0.28,-0.82 -1.72,-0.99 -1.86,0.03 -0.01,0.11 -0.03,0.22 -0.05,0.33 -0.12,-1.37 -0.27,-2.73 -0.37,-4.1 -0.07,-0.91 -1.07,-1.16 -1.61,-0.75 -0.13,-0.79 -0.24,-1.57 -0.38,-2.36 -0.19,-1.07 -1.64,-0.81 -1.88,0.07 -0.2,-0.03 -0.42,0 -0.61,0.09 -0.46,-0.49 -1.54,-0.34 -1.67,0.41 -0.06,0.29 -0.09,0.59 -0.14,0.88 -0.21,0.16 -0.37,0.39 -0.42,0.71 -0.12,0.87 -0.26,1.74 -0.43,2.6 -0.48,-0.11 -1.01,0.08 -1.1,0.66 -0.01,0.07 -0.02,0.15 -0.03,0.22 -0.04,-0.47 -0.07,-0.95 -0.1,-1.42 -0.06,-0.84 -1.27,-1.39 -1.76,-0.59 -0.53,-0.42 -1.59,-0.05 -1.63,0.78 -0.03,0.76 -0.09,1.51 -0.14,2.26 -0.56,-0.34 -1.55,0.03 -1.56,0.83 -0.01,0.24 -0.04,0.47 -0.05,0.71 -0.45,-0.71 -1.81,-0.41 -1.79,0.57 0.02,1.58 0.05,3.16 0.07,4.74 0.01,0.65 0.6,1.02 1.14,0.94 0.41,0.62 1.55,0.5 1.75,-0.29 0.01,0.01 0.02,0.02 0.03,0.03 -0.29,2.13 -0.59,4.25 -0.88,6.38 -0.16,1.21 1.62,1.78 1.89,0.52 0.1,-0.45 0.19,-0.9 0.28,-1.35 0,0.36 0,0.72 -0.02,1.08 -0.04,0.93 1.44,1.4 1.83,0.5 0.07,-0.17 0.14,-0.35 0.21,-0.52 0.02,1.85 0.06,3.7 0.08,5.55 0.02,1.06 1.76,1.39 1.93,0.26 0.08,-0.6 0.21,-1.2 0.31,-1.8 0.02,0.41 0.24,0.68 0.55,0.78 0,0.6 0.01,1.2 0.02,1.81 0.01,0.76 0.81,1.1 1.38,0.87 0.03,1.19 0.06,2.36 0.09,3.54 0.02,1.08 1.66,1.37 1.92,0.26 0.28,-1.18 0.56,-2.36 0.84,-3.54 0.08,0.41 0.18,0.81 0.24,1.23 0.04,0.33 0.24,0.52 0.47,0.62 0.02,0.62 0.03,1.24 0.05,1.87 0.01,0.78 0.95,1.16 1.52,0.84 0.01,0.95 0.02,1.9 0.03,2.84 0,0.58 0.39,0.87 0.81,0.93 0.01,0.45 0.01,0.9 0.02,1.35 0.02,1.07 1.7,1.38 1.92,0.26 0.25,-1.21 0.49,-2.43 0.73,-3.64 0,3.01 0,6.01 -0.01,9.01 -0.52,-0.54 -1.41,-0.46 -1.67,0.33 -0.45,1.33 -0.89,2.67 -1.33,4 -0.47,-0.5 -1.45,-0.51 -1.67,0.35 -0.62,2.48 -0.92,4.95 -0.89,7.51 0,0.12 0.03,0.22 0.06,0.32 -0.32,1.51 -0.63,3.01 -0.95,4.51 -0.3,-0.85 -1.76,-0.67 -1.9,0.4 -0.43,3.33 -0.93,6.64 -1.45,9.96 -0.44,-0.08 -0.88,0.11 -0.98,0.69 -0.99,5.32 -1.68,10.69 -2.06,16.09 -0.04,0.61 0.49,0.94 1,0.95 -0.24,1.08 -0.52,2.15 -0.84,3.22 -0.29,0.99 0.9,1.5 1.55,1 -0.03,0.27 -0.06,0.55 -0.08,0.82 -0.17,0.44 -0.32,0.89 -0.47,1.34 -0.57,-0.36 -1.48,-0.04 -1.51,0.8 -0.07,2.23 -0.15,4.45 -0.23,6.68 -0.01,0.17 0.02,0.31 0.07,0.43 -0.01,0.83 0,1.65 0.08,2.49 0.11,1.09 1.55,1.35 1.92,0.26 0,-0.01 0.01,-0.01 0.01,-0.02 0.09,0.4 0.17,0.8 0.26,1.19 0.19,0.84 1.37,0.92 1.77,0.26 0.15,1.13 1.89,1.1 1.94,-0.11 0.07,-1.79 0.22,-3.56 0.45,-5.32 0,-0.04 0.01,-0.08 0.02,-0.12 0.21,1.1 0.42,2.19 0.63,3.28 0.18,0.91 1.76,0.96 1.89,0 0.01,-0.11 0.02,-0.22 0.03,-0.32 0.29,-0.14 0.51,-0.41 0.51,-0.84 0,-2.65 0,-5.3 0,-7.96 0,-0.41 -0.23,-0.68 -0.52,-0.82 0,-0.35 0,-0.7 0,-1.05 0.57,0.23 1.36,-0.06 1.4,-0.86 0.06,-1.5 0.07,-3 0.02,-4.5 0.02,-0.06 0.05,-0.1 0.07,-0.16 0.35,-2.09 0.67,-4.19 0.95,-6.29 0.4,-0.09 0.73,-0.39 0.73,-0.91 -0.01,-0.63 0,-1.25 0,-1.88 0.54,0.15 1.22,-0.14 1.26,-0.9 0.09,-1.34 0.14,-2.68 0.21,-4.02 0.17,-0.16 0.29,-0.39 0.29,-0.69 0,-0.5 0,-1.01 0,-1.52 0.2,-0.17 0.36,-0.39 0.38,-0.68 0.09,-0.92 0.17,-1.84 0.26,-2.76 0.45,-0.03 0.89,-0.34 0.93,-0.93 0,-0.1 0,-0.21 0,-0.31 0.13,-0.11 0.23,-0.26 0.27,-0.47 0.39,-1.97 0.77,-3.94 1.15,-5.9 0.5,0.12 1.08,-0.07 1.16,-0.66 0.14,-0.94 0.28,-1.89 0.41,-2.84 0.31,-0.07 0.58,-0.28 0.64,-0.67 0.14,-0.89 0.36,-1.76 0.55,-2.64 0.53,0.37 1.51,0.1 1.62,-0.77 0.03,-0.46 0.11,-0.91 0.16,-1.37 0.6,-0.94 0.84,-2.5 0.93,-3.82 0.35,0.84 1.6,0.93 1.87,-0.03 0.91,-3.26 1.83,-6.53 2.74,-9.79 0.06,-0.09 0.11,-0.19 0.14,-0.31 0.1,-0.41 0.19,-0.82 0.29,-1.23 0.15,-0.52 0.29,-1.03 0.44,-1.55 0.18,1.1 1.93,1.08 1.92,-0.14 -0.01,-1.37 -0.03,-2.74 -0.04,-4.11 0.06,0.31 0.1,0.62 0.18,0.93zm8.88 -15.57l0 0c-0.01,-0.07 -0.01,-0.14 -0.02,-0.22 -0.03,-0.51 -0.35,-0.81 -0.72,-0.9 0.04,-0.86 0.07,-1.72 0.11,-2.58 0.23,1.18 0.46,2.36 0.7,3.54 -0.03,0.05 -0.05,0.11 -0.07,0.16zm-2.77 0.74l0 0c0.01,0.5 0.32,0.8 0.69,0.9 -0.05,0.76 -0.12,1.53 -0.13,2.29 -1.09,2.55 -2.21,5.08 -3.5,7.53 0.19,-0.65 0.38,-1.3 0.55,-1.95 0.38,-0.09 0.7,-0.39 0.7,-0.89 0,-0.78 0.07,-1.53 0.18,-2.29 0.39,-0.01 0.74,-0.21 0.81,-0.69 0.23,-1.66 0.47,-3.33 0.7,-4.99 0,0.03 0,0.06 0,0.09zm-4.13 7.66l0 0c-0.08,-0.2 -0.22,-0.33 -0.39,-0.41 0.04,-0.17 0.09,-0.34 0.13,-0.51 0.21,0 0.4,-0.08 0.55,-0.23 -0.09,0.38 -0.18,0.76 -0.29,1.15zm-7.68 8.93l0 0c-0.11,0.31 -0.23,0.62 -0.33,0.94 0.11,-0.52 0.22,-1.05 0.33,-1.57 0,0.21 0,0.42 0,0.63zm-19.86 -20.95l0 0c0.04,1.03 0.05,2.07 0.06,3.1 -0.09,-0.2 -0.23,-0.35 -0.4,-0.46 0.11,-0.88 0.22,-1.76 0.34,-2.64zm5.41 8.47l0 0c0.03,0.03 0.05,0.06 0.08,0.09 0,0.74 0,1.48 0.01,2.22 -0.02,0.06 -0.06,0.1 -0.07,0.16 -0.03,0.17 -0.06,0.33 -0.09,0.5 -0.1,-0.08 -0.21,-0.13 -0.32,-0.16 0.13,-0.94 0.26,-1.87 0.39,-2.81zm5.56 8.77l0 0c0,-0.11 -0.03,-0.2 -0.06,-0.29 -0.01,-0.49 -0.02,-0.98 -0.04,-1.47 0.1,0.05 0.21,0.09 0.33,0.11 0.03,0.32 0.06,0.63 0.09,0.95 -0.1,1.07 -0.2,2.14 -0.31,3.21 -0.01,-0.15 -0.01,-0.3 -0.01,-0.44 0,-0.69 0,-1.38 0,-2.07zm-10.06 64.42l0 0c0.01,0.04 0.03,0.07 0.04,0.1 -0.08,0.41 -0.16,0.82 -0.24,1.23 -0.05,-1.31 -0.1,-2.62 -0.22,-3.92 -0.03,-0.35 -0.26,-0.65 -0.55,-0.82 0.03,-0.7 0.06,-1.4 0.09,-2.09 0.29,1.83 0.59,3.67 0.88,5.5zm10.22 -49.63l0 0c0,0.42 0,0.84 0,1.26 -0.06,-0.07 -0.12,-0.15 -0.18,-0.22 0.07,-0.35 0.12,-0.69 0.18,-1.04zm-3.54 9.17l0 0c0,0.68 0,1.36 0,2.05 -0.18,-0.24 -0.44,-0.37 -0.71,-0.39 0.22,-0.56 0.48,-1.11 0.71,-1.66zm-6.69 23.84l0 0c0,1.42 0,2.84 -0.01,4.26 -0.17,-1.07 -0.34,-2.14 -0.51,-3.21 0.01,-0.4 0.02,-0.79 0.02,-1.19 0.15,0.09 0.32,0.14 0.5,0.14zm13.35 -40.96l0 0c0,-0.43 -0.01,-0.85 -0.02,-1.28 0,-0.01 -0.01,-0.01 -0.01,-0.01 0.06,-0.02 0.12,-0.04 0.17,-0.07 -0.05,0.46 -0.08,0.91 -0.14,1.36zm-13.96 -18.52l0 0c0.12,0.16 0.29,0.27 0.47,0.32 0,0.07 0,0.15 0,0.22 -0.09,-0.22 -0.26,-0.36 -0.46,-0.44 -0.01,-0.04 -0.01,-0.07 -0.01,-0.1zm1.81 3.24l0 0c0.29,-0.12 0.53,-0.37 0.6,-0.75 0.01,0.83 0.01,1.65 0.01,2.48 -0.22,0.08 -0.4,0.27 -0.49,0.56 -0.01,-0.65 -0.03,-1.29 -0.04,-1.94 -0.01,-0.13 -0.04,-0.24 -0.08,-0.35zm0.39 42.09l0 0c0.05,0.04 0.11,0.06 0.17,0.08 0,1.35 0,2.7 0,4.04 -0.01,0.08 -0.03,0.15 -0.05,0.22 -0.08,-0.09 -0.18,-0.17 -0.29,-0.23 0.05,-1.37 0.1,-2.74 0.17,-4.11zm15.87 -25.38l0 0c0,-0.31 0,-0.62 0.01,-0.93 0,-0.06 -0.03,-0.11 -0.04,-0.17 0.15,-0.01 0.29,-0.04 0.41,-0.11 -0.13,0.4 -0.26,0.8 -0.38,1.21zm-10.27 9.67l0 0c-0.04,0.05 -0.08,0.09 -0.11,0.15 -0.08,0.18 -0.15,0.36 -0.23,0.54 0.11,-0.34 0.23,-0.67 0.34,-1.01 0,0.11 0,0.22 0,0.32zm10.64 -3.51l0 0c0.6,-2.48 1.28,-4.93 2.05,-7.35 0.02,0.15 0.03,0.31 0.05,0.47 -0.67,2.38 -1.34,4.76 -2.01,7.14 -0.03,-0.09 -0.06,-0.17 -0.09,-0.26zm1.17 -21.44l0 0c0,0.16 0,0.32 0,0.48 -0.26,1.26 -0.53,2.51 -0.8,3.77 0,-0.27 0,-0.55 0,-0.83 0.3,-1.13 0.57,-2.27 0.8,-3.42z"/>
    </g>
    <g>
     <g>
      <path class="fil0" d="M220.38 196.82c-0.2,0 -0.41,-0.03 -0.54,-0.1 -1.23,-0.64 -0.79,-2.52 1.65,-10.26 0.22,-0.72 0.48,-1.52 0.73,-2.34 -0.32,0.54 -0.67,1.12 -1.05,1.75 -0.03,0.09 -0.07,0.17 -0.1,0.25 -2.59,6.48 -3.49,8.42 -4.48,8.79 -0.23,0.09 -0.66,0.07 -0.88,-0.05 0,0 -0.01,0 -0.02,-0.01 -0.03,-0.01 -0.05,-0.02 -0.08,-0.03 -0.23,-0.12 -0.4,-0.27 -0.5,-0.47 -0.24,0.04 -0.55,0.01 -0.72,-0.08 -0.46,-0.24 -0.67,-0.6 -0.61,-1.3 -0.19,0.22 -0.38,0.36 -0.58,0.43 -0.23,0.08 -0.63,0.06 -0.85,-0.05 -0.99,-0.52 -0.82,-1.79 0.39,-7.52 0.16,-0.73 0.34,-1.58 0.51,-2.42 -0.29,0.7 -0.58,1.41 -0.82,2.03 -1.86,4.66 -2.44,5.88 -3.23,6.17 -0.23,0.09 -0.6,0.07 -0.82,-0.04 -0.93,-0.49 -0.72,-1.73 0.22,-5.9 -1.36,3.39 -1.81,4.3 -2.5,4.56 -0.23,0.08 -0.58,0.07 -0.8,-0.05 -0.64,-0.34 -0.8,-1.12 -1.24,-4.64 -0.06,-0.51 -0.13,-1.11 -0.21,-1.68 -0.13,0.3 -0.25,0.61 -0.36,0.88 -1.04,2.61 -1.34,3.24 -1.92,3.46 -0.24,0.09 -0.55,0.07 -0.77,-0.04 -0.58,-0.3 -0.68,-0.9 -0.91,-3.1 -0.52,1.27 -0.75,1.68 -1.21,1.85 -0.23,0.09 -0.52,0.07 -0.74,-0.04 -0.08,-0.04 -0.15,-0.09 -0.21,-0.14 -0.1,-0.01 -0.21,-0.04 -0.29,-0.09 -0.2,-0.1 -0.71,-0.45 -1.9,-1.28 -0.34,-0.25 -0.69,-0.49 -0.99,-0.7 -0.09,0.1 -0.21,0.19 -0.37,0.25 -0.23,0.08 -0.5,0.07 -0.72,-0.05 -0.05,-0.03 -0.1,-0.06 -0.14,-0.1 -0.08,-0.01 -0.15,-0.03 -0.22,-0.07 -0.32,-0.15 -0.52,-0.48 -0.51,-0.83 0.01,-0.16 0.06,-0.3 0.14,-0.43 0.13,-0.32 0.27,-0.61 0.62,-0.75 0.14,-0.05 0.28,-0.07 0.43,-0.05 0.04,-0.02 0.09,-0.04 0.14,-0.06 0.23,-0.09 0.49,-0.07 0.72,0.05 0.17,0.09 0.61,0.39 1.91,1.3 0.36,0.26 0.71,0.51 1.01,0.71 0.12,-0.28 0.25,-0.6 0.35,-0.86 0.64,-1.59 0.85,-2.06 1.35,-2.25 0.15,-0.06 0.32,-0.07 0.49,-0.04 0.06,-0.04 0.12,-0.07 0.19,-0.09 0.23,-0.09 0.53,-0.07 0.75,0.04 0.58,0.31 0.67,0.93 0.92,3.27 0,0.01 0,0.02 0,0.03 0.09,-0.23 0.18,-0.44 0.26,-0.64 1.04,-2.61 1.34,-3.24 1.92,-3.46 0.24,-0.09 0.56,-0.07 0.78,0.05 0.64,0.33 0.8,1.12 1.23,4.64 0.07,0.58 0.16,1.29 0.25,1.93 0.38,-0.86 0.8,-1.92 1.13,-2.74 1.52,-3.82 1.98,-4.81 2.7,-5.08 0.23,-0.08 0.58,-0.06 0.8,0.05 0.95,0.5 0.7,1.8 -0.3,6.24 -0.02,0.09 -0.04,0.19 -0.06,0.28 0.17,-0.42 0.33,-0.84 0.48,-1.21 1.86,-4.66 2.44,-5.88 3.23,-6.17 0.23,-0.08 0.6,-0.07 0.82,0.05 0.99,0.51 0.82,1.79 -0.4,7.53 -0.18,0.88 -0.41,1.95 -0.6,2.95 0.55,-1.29 1.15,-2.79 1.63,-3.99 2.26,-5.67 3,-7.26 3.9,-7.59 0.24,-0.09 0.64,-0.07 0.86,0.04 0.35,0.19 0.56,0.44 0.6,0.88 0.5,-0.9 0.88,-1.31 1.29,-1.46 0.23,-0.09 0.65,-0.07 0.87,0.05 0.06,0.03 0.11,0.06 0.16,0.09 0.21,-0.24 0.42,-0.39 0.62,-0.46 0.06,-0.02 0.12,-0.04 0.19,-0.05 0.24,-0.07 0.63,-0.04 0.83,0.06 1.23,0.64 0.79,2.52 -1.64,10.26 -0.56,1.76 -1.27,4.03 -1.74,5.81 0.89,-1.94 1.99,-4.69 2.89,-6.94 3.03,-7.58 4.07,-9.85 5.18,-10.27 0.24,-0.08 0.7,-0.06 0.91,0.05 0.79,0.41 0.88,1.26 0.15,3.54 1.29,-2.95 2.01,-4.06 2.76,-4.33 0.23,-0.09 0.7,-0.07 0.91,0.05 1.11,0.57 0.79,2.16 -1.07,8.72 -0.31,1.11 -0.69,2.46 -1.01,3.69 0.66,-1.51 1.38,-3.32 1.95,-4.76 2.57,-6.42 3.46,-8.35 4.44,-8.71 0.23,-0.09 0.66,-0.07 0.88,0.05 0.16,0.08 0.29,0.18 0.39,0.31 0.3,-0.44 0.57,-0.67 0.86,-0.77 0.23,-0.09 0.64,-0.07 0.86,0.04 0.8,0.42 0.81,1.39 0.54,5.73 -0.03,0.62 -0.08,1.36 -0.11,2.06 0.41,-0.96 0.86,-2.09 1.22,-2.98 1.79,-4.49 2.34,-5.65 3.11,-5.94 0.23,-0.09 0.6,-0.07 0.82,0.04 0.53,0.28 0.71,0.83 1.44,3.49 0.07,0.29 0.16,0.62 0.25,0.94 0.18,-0.32 0.39,-0.7 0.64,-1.13 0.06,-0.15 0.11,-0.3 0.17,-0.43 1.2,-3.02 1.55,-3.74 2.17,-3.97 0.07,-0.03 0.16,-0.05 0.24,-0.06 0.23,-0.07 0.54,-0.05 0.75,0.06 0.22,0.11 0.47,0.33 1.62,1.47 0.19,0.19 0.39,0.37 0.56,0.55 0.1,-0.24 0.2,-0.49 0.29,-0.7 0.63,-1.6 0.84,-2.07 1.35,-2.25 0.23,-0.09 0.52,-0.07 0.74,0.04 0.1,0.05 0.56,0.2 1.01,0.36 0.13,0.05 0.26,0.09 0.38,0.14 0.23,-0.56 0.38,-0.88 0.77,-1.02 0.24,-0.09 0.51,-0.07 0.73,0.04 0.43,0.23 0.59,0.76 0.36,1.19 -0.03,0.07 -0.08,0.13 -0.13,0.18 -0.04,0.11 -0.09,0.24 -0.15,0.38 -0.25,0.64 -0.39,0.99 -0.82,1.15 -0.23,0.08 -0.5,0.07 -0.73,-0.05 -0.09,-0.04 -0.54,-0.2 -0.99,-0.36 -0.16,-0.05 -0.33,-0.11 -0.48,-0.17 -0.14,0.31 -0.29,0.71 -0.42,1.01 -0.63,1.6 -0.84,2.06 -1.34,2.25 -0.23,0.09 -0.52,0.07 -0.75,-0.04 -0.22,-0.12 -0.46,-0.33 -1.6,-1.45 -0.17,-0.17 -0.35,-0.34 -0.51,-0.5 -0.22,0.46 -0.54,1.04 -0.99,1.82 -0.07,0.16 -0.13,0.31 -0.19,0.46 -1.12,2.81 -1.48,3.59 -2.05,3.86 -0.11,0.11 -0.23,0.17 -0.36,0.22 -0.23,0.09 -0.56,0.07 -0.78,-0.04 -0.53,-0.28 -0.71,-0.82 -1.44,-3.49 -0.11,-0.42 -0.25,-0.93 -0.38,-1.39 -0.51,1.08 -1.17,2.74 -1.67,3.98 -1.79,4.49 -2.34,5.66 -3.11,5.94 -0.23,0.09 -0.6,0.07 -0.82,-0.04 -0.8,-0.42 -0.81,-1.38 -0.54,-5.72 0.04,-0.73 0.1,-1.64 0.13,-2.44 -0.7,1.5 -1.58,3.7 -2.24,5.36 -2.37,5.95 -3.15,7.61 -4.08,7.96 -0.23,0.09 -0.64,0.07 -0.86,-0.05 -0.12,-0.06 -0.22,-0.13 -0.31,-0.22 -0.7,1.42 -1.18,2.02 -1.68,2.2 -0.24,0.09 -0.66,0.07 -0.88,-0.04 -1.11,-0.58 -0.78,-2.17 1.07,-8.72 0.37,-1.33 0.85,-3.01 1.19,-4.41 -0.94,2.01 -2.11,4.95 -3.06,7.34 -3.13,7.83 -4.2,10.17 -5.34,10.59 -0.24,0.09 -0.7,0.06 -0.92,-0.05 -0.78,-0.4 -0.88,-1.24 -0.16,-3.46 -1.1,2.42 -1.75,3.37 -2.43,3.62 -0.1,0.03 -0.23,0.05 -0.37,0.05z"/>
     </g>
     <g>
      <path class="fil0" d="M228.87 243.49c-0.33,0 -0.58,-0.1 -0.76,-0.2 -0.26,-0.13 -0.6,-0.42 -0.75,-0.97 -0.53,-1.88 1.63,-6.59 5.64,-13.91 -0.94,1.41 -1.71,2.2 -2.38,2.42 -0.48,0.16 -0.87,0.04 -1.11,-0.09 -0.22,-0.12 -0.51,-0.36 -0.64,-0.82 -0.3,-1.1 0.52,-3.24 2.54,-7.08 -0.01,0.01 -0.02,0.01 -0.04,0.02 -0.33,0.11 -0.68,0.07 -0.97,-0.09 -0.29,-0.16 -0.5,-0.43 -0.58,-0.77 -0.08,-0.34 -0.03,-0.78 0.17,-1.35 -0.25,-1.02 0.38,-3.12 1.98,-7.91 0.24,-0.74 0.52,-1.58 0.79,-2.43 -0.06,0.04 -0.13,0.07 -0.21,0.1 -0.23,0.07 -0.54,0.05 -0.75,-0.07 -0.62,-0.34 -0.61,-0.85 -0.28,-1.62 -0.09,-0.23 -0.08,-0.5 0.05,-0.73 0.07,-0.12 0.15,-0.22 0.25,-0.29 0.12,-0.2 0.27,-0.53 0.42,-0.85 0.51,-1.07 0.72,-1.51 1.21,-1.67 0.06,-0.02 0.13,-0.03 0.2,-0.04 0.22,-0.32 0.41,-0.47 0.67,-0.55 0.23,-0.08 0.53,-0.05 0.75,0.07 1.13,0.62 0.74,2.19 -1.41,8.64 -0.2,0.6 -0.42,1.28 -0.65,1.96 0.68,-1.04 1.47,-2.23 2.38,-3.58 0.31,-0.66 0.62,-1.31 0.91,-1.92 3.53,-7.43 5.09,-10.51 6.41,-10.93 0.03,-0.01 0.07,-0.02 0.1,-0.03 0.34,-0.37 0.66,-0.6 0.95,-0.7 0.34,-0.11 0.69,-0.07 0.97,0.09 0.22,0.11 0.51,0.35 0.64,0.82 0.06,0.22 0.08,0.49 0.05,0.8 1.95,-3.62 3.31,-5.51 4.4,-5.86 0.48,-0.16 0.87,-0.04 1.11,0.09 0.25,0.14 0.59,0.42 0.75,0.97 0.74,2.65 -3.84,10.88 -11.39,24.09 -4.88,8.56 -11.52,20.19 -11.26,22.55 2.41,-1.02 9.41,-15.78 14.56,-26.63 7.84,-16.54 12.82,-26.66 15.77,-27.61 0.59,-0.2 1.05,-0.05 1.33,0.1 0.94,0.51 0.94,1.64 -0.28,4.48 2.88,-5.84 4.55,-8.6 5.88,-9.02 0.36,-0.12 0.74,-0.09 1.06,0.08 0.47,0.26 0.61,0.72 1.06,2.46 0.01,0.05 0.03,0.11 0.04,0.16 0.26,-0.52 0.54,-1.11 0.77,-1.59 1.31,-2.77 1.69,-3.44 2.31,-3.64 0.24,-0.08 0.56,-0.05 0.78,0.07 0.44,0.24 0.59,0.78 0.35,1.22 -0.09,0.18 -0.25,0.31 -0.43,0.39 -0.31,0.45 -0.96,1.8 -1.39,2.73 -1.32,2.77 -1.69,3.44 -2.32,3.64 -0.24,0.08 -0.56,0.05 -0.78,-0.07 -0.47,-0.25 -0.61,-0.72 -1.06,-2.46 -0.08,-0.28 -0.17,-0.64 -0.26,-0.95 -1.6,1.74 -5.05,9.04 -7.64,14.5 -5,10.53 -7.37,15.21 -9.13,15.78 -0.37,0.11 -0.74,0.08 -1.06,-0.09 -1.64,-0.9 -0.43,-3.68 5.26,-14.27 2.27,-4.22 5.31,-9.87 5.68,-11.74 -2.42,1.47 -9.27,15.93 -14.33,26.6 -7.84,16.54 -12.82,26.65 -15.77,27.61 -0.2,0.06 -0.39,0.09 -0.56,0.09zm9.82 -29.97l0 0c-0.26,0.45 -0.52,0.92 -0.79,1.39 -2.75,4.79 -6.37,11.1 -7.16,13.63 1.76,-2.09 5.15,-9.13 7.95,-15.02zm11.31 -17.61l0 0c-1.77,1.68 -5.9,10.38 -8.97,16.87 -1.83,3.86 -3.37,7.06 -4.68,9.64 0.76,-1.34 1.56,-2.74 2.39,-4.2 4.74,-8.31 11.13,-19.51 11.26,-22.31zm8.29 0.46l0 0c-0.79,1.53 -1.74,3.31 -2.86,5.41 -1.97,3.66 -4.52,8.4 -5.41,10.81 1.75,-2.47 4.8,-8.91 7.14,-13.85 0.39,-0.83 0.77,-1.62 1.13,-2.37z"/>
     </g>
     <path class="fil0" d="M273.6 169.35c-0.26,-0.31 -0.52,-0.61 -0.78,-0.91 -0.49,-0.58 -1.33,-0.68 -2.02,-0.54 -13.81,2.87 -27.7,5.19 -41.64,7.36 -6.9,1.08 -13.81,2.12 -20.71,3.23 -5.82,0.93 -11.39,2.31 -16.13,5.96 -0.03,-0.04 -0.07,-0.07 -0.11,-0.1 -1.81,-1.97 -4.74,0.97 -2.93,2.93 4.14,4.49 10.56,6.16 16.16,8.05 6.06,2.04 12.19,3.86 18.37,5.53 -1.58,1.63 0.37,4.73 2.44,3.29 14.87,-10.37 30.04,-20.3 45.48,-29.79 0.64,-0.39 0.91,-0.96 0.95,-1.54 1.2,-0.48 2.03,-2.16 0.92,-3.47zm-77.93 17.75l0 0c4.65,-3.33 10.63,-4.11 16.14,-4.97 6.82,-1.06 13.63,-2.12 20.45,-3.18 11.27,-1.75 22.5,-3.67 33.69,-5.87 -12.9,8.01 -25.6,16.33 -38.1,24.95 -0.24,-0.27 -0.54,-0.51 -0.98,-0.62 -6.4,-1.69 -12.74,-3.57 -19.02,-5.65 -3.92,-1.3 -8.49,-2.43 -12.18,-4.66z"/>
     <path class="fil0" d="M277.98 178.49c-0.1,-0.36 -0.28,-0.68 -0.55,-0.95 -0.61,-0.73 -1.23,-1.45 -1.84,-2.18 -0.2,-0.21 -0.42,-0.36 -0.69,-0.45 -0.25,-0.13 -0.53,-0.19 -0.83,-0.18 -0.29,-0.01 -0.57,0.05 -0.82,0.18 -0.27,0.09 -0.5,0.24 -0.69,0.45 -0.38,0.41 -0.65,0.94 -0.63,1.51 -14.8,9.53 -28.8,20.27 -41.83,32.1 -1.03,0.05 -2.01,0.72 -2.02,2.03 -0.3,0.58 -0.27,1.19 0,1.72l0.04 19.48 0.02 10.38c0,2.53 0.15,5.11 -0.16,7.64 -0.2,0.32 -0.44,0.62 -0.73,0.89 -0.85,0.79 -0.79,2.24 0,3.03 0.18,0.18 0.38,0.29 0.58,0.38 0.95,1.2 3.26,1.29 3.79,-0.64 0.06,-0.19 0.08,-0.38 0.12,-0.56 0.07,-0.09 0.16,-0.15 0.21,-0.24 2.6,-4.28 5,-8.67 7.23,-13.15 4.43,-5.38 7.52,-11.68 11.03,-17.69 3.5,-5.99 7.35,-11.78 11.49,-17.36 0.78,0.3 1.76,0.22 2.29,-0.45 2.67,-3.32 4.77,-6.97 6.79,-10.7 2.2,-4.05 4.39,-8.09 6.58,-12.13 0.24,-0.44 0.27,-0.86 0.23,-1.25 0.28,-0.38 0.49,-0.81 0.47,-1.29 -0.02,-0.19 -0.05,-0.38 -0.08,-0.57zm-10.71 12.71l0 0c-1.22,2.26 -2.46,4.53 -3.85,6.7 -0.7,-0.36 -1.54,-0.3 -2.19,0.54 -5.06,6.5 -9.75,13.27 -13.97,20.35 -2.84,4.79 -5.33,9.87 -8.45,14.49 -0.12,-0.12 -0.23,-0.26 -0.38,-0.34 -1.08,-0.64 -2.25,-0.18 -2.93,0.77 -1.03,1.43 -2.05,2.86 -3.08,4.29 0,-1.66 -0.01,-3.31 -0.01,-4.97l-0.04 -20.34c12.5,-11.43 25.9,-21.8 40.09,-31.05 -1.73,3.19 -3.46,6.38 -5.19,9.56z"/>
    </g>
   </g>
  </g>
 </g>
</svg>
