<?xml version="1.0" encoding="UTF-8"?>
<svg xmlns="http://www.w3.org/2000/svg" xmlns:xlink="http://www.w3.org/1999/xlink" width="24pt" height="24pt" viewBox="0 0 24 24" version="1.1">
<g id="surface1">
<path style=" stroke:none;fill-rule:nonzero;fill:rgb(0%,0%,0%);fill-opacity:1;" d="M 19.199219 10.839844 L 19.199219 8 C 17.871094 8 16.855469 7.644531 16.199219 6.953125 C 15.527344 6.167969 15.152344 5.171875 15.136719 4.136719 L 15.136719 3.929688 L 12.449219 3.863281 C 12.449219 3.863281 12.449219 3.980469 12.449219 4.136719 L 12.449219 15.398438 C 12.261719 16.429688 11.449219 17.234375 10.417969 17.414062 C 9.382812 17.59375 8.351562 17.109375 7.824219 16.199219 C 7.300781 15.292969 7.398438 14.15625 8.070312 13.347656 C 8.742188 12.542969 9.84375 12.242188 10.828125 12.59375 L 10.828125 9.84375 C 10.550781 9.800781 10.265625 9.777344 9.980469 9.773438 C 7.121094 9.773438 4.800781 12.09375 4.800781 14.953125 C 4.800781 17.816406 7.121094 20.136719 9.980469 20.136719 C 12.839844 20.136719 15.160156 17.816406 15.160156 14.953125 C 15.160156 14.742188 15.144531 14.53125 15.121094 14.320312 L 15.121094 9.746094 C 16.339844 10.507812 17.761719 10.890625 19.199219 10.839844 Z M 19.199219 10.839844 "/>
</g>
</svg>
