<svg xmlns="http://www.w3.org/2000/svg" width="65" height="65" fill="none" viewBox="0 0 65 65">
    <g fill="#000" clip-path="url(#a)">
        <path d="M19.808 37.623c.599 0 1.161.233 1.584.657.24.239.553.359.867.358a1.226 1.226 0 0 0 .867-2.093 4.661 4.661 0 0 0-3.318-1.373 4.661 4.661 0 0 0-3.317 1.374 1.226 1.226 0 1 0 1.733 1.733 2.225 2.225 0 0 1 1.584-.656zM41.874 36.546a1.226 1.226 0 1 0 1.733 1.733 2.243 2.243 0 0 1 3.169 0 1.222 1.222 0 0 0 1.733 0 1.226 1.226 0 0 0 0-1.733 4.697 4.697 0 0 0-6.635 0zM45.185 48.638c-6.994 6.994-18.375 6.994-25.369 0a1.226 1.226 0 1 0-1.733 1.733c3.975 3.975 9.196 5.963 14.418 5.963 5.221 0 10.443-1.988 14.418-5.963a1.226 1.226 0 1 0-1.734-1.733z"/>
        <path d="M61.422 38.944c0-3.33-2.407-6.106-5.572-6.685V11.754a7.899 7.899 0 0 0-3.54-6.597 7.897 7.897 0 0 0-7.004-.871l-7.695-2.612c-5.913-2.008-12.138-2.213-18-.596-7.675 2.118-12.075 6.595-12.754 12.96a9.305 9.305 0 0 0-1.404 2.644l-.596 1.767c-.32.949.032 1.945.879 2.48a2.097 2.097 0 0 0 2.618-.269c.245-.238.514-.438.797-.606V32.26c-3.165.58-5.572 3.355-5.572 6.685 0 3.463 2.603 6.327 5.955 6.744a23.538 23.538 0 0 0 6.436 12.366C20.386 62.534 26.256 65 32.5 65h.003c6.236 0 12.098-2.43 16.508-6.839 3.444-3.444 5.68-7.775 6.494-12.478 3.333-.434 5.916-3.29 5.916-6.739zM50.955 7.2a5.382 5.382 0 0 1 2.443 4.554v16.04c-3.804-.591-6.725-3.89-6.725-7.857L46.57 6.46a5.367 5.367 0 0 1 4.384.74zM7.538 18.172l.238-.705a6.874 6.874 0 0 1 3.802-4.114 6.874 6.874 0 0 1 5.601.088c3.712 1.729 8.2.794 10.912-2.273l.304-.343a1.226 1.226 0 1 0-1.837-1.624l-.303.343a6.906 6.906 0 0 1-8.041 1.675 9.328 9.328 0 0 0-7.6-.12c-.222.095-.438.201-.65.312 1.425-3.798 4.874-6.473 10.299-7.97 5.387-1.486 11.113-1.295 16.56.554l7.297 2.477.095 6.333a21.544 21.544 0 0 1-13.387 8.436 21.55 21.55 0 0 1-15.882-3.137 6.642 6.642 0 0 0-7.408.068zM6.03 38.944a4.353 4.353 0 0 1 3.12-4.169v6.644c0 .574.022 1.144.062 1.712a4.354 4.354 0 0 1-3.182-4.187zm41.248 17.484a20.762 20.762 0 0 1-14.776 6.12H32.5c-5.582 0-10.833-2.207-14.784-6.215a21.12 21.12 0 0 1-6.114-14.914V19.476a4.236 4.236 0 0 1 2.004.681 23.99 23.99 0 0 0 17.68 3.492 23.974 23.974 0 0 0 12.935-7.038v3.326c0 5.321 4.017 9.72 9.177 10.328V41.65a20.76 20.76 0 0 1-6.12 14.778zm8.524-13.301c.03-.49.048-.982.048-1.476v-6.876a4.353 4.353 0 0 1 3.12 4.169 4.353 4.353 0 0 1-3.168 4.182z"/>
    </g>
    <defs>
        <clipPath id="a">
            <path fill="#fff" d="M0 0h64.239v64.239H0z" transform="scale(1.01185)"/>
        </clipPath>
    </defs>
</svg>
