<svg xmlns="http://www.w3.org/2000/svg" width="51" height="89" fill="none" viewBox="0 0 51 89">
    <path fill="#FF8400" d="M32.63 4.45H17.797a1.484 1.484 0 0 0 0 2.966H32.63a1.484 1.484 0 0 0 0-2.966zM43.013 4.45h-1.484a1.484 1.484 0 0 0 0 2.967h1.484a1.484 1.484 0 0 0 0-2.967zM27.056 75.65h-3.683a4.098 4.098 0 0 0-4.093 4.092v.717a4.096 4.096 0 0 0 4.091 4.091h3.684a4.096 4.096 0 0 0 4.092-4.091v-.717a4.097 4.097 0 0 0-4.091-4.092zm1.124 4.809c0 .62-.504 1.124-1.124 1.124h-3.683a1.126 1.126 0 0 1-1.126-1.124v-.717c0-.621.504-1.126 1.126-1.126h3.681c.622 0 1.126.505 1.126 1.126v.717z"/>
    <path fill="#FF8400" d="M45.073 0H5.363A5.369 5.369 0 0 0 0 5.362v78.276A5.369 5.369 0 0 0 5.362 89h39.709a5.369 5.369 0 0 0 5.362-5.36V5.361A5.368 5.368 0 0 0 45.073 0zm2.394 83.638a2.398 2.398 0 0 1-2.394 2.395H5.363a2.398 2.398 0 0 1-2.396-2.394V5.362a2.398 2.398 0 0 1 2.395-2.395h39.709a2.398 2.398 0 0 1 2.396 2.395v78.276z"/>
    <path fill="#FF8400" d="M48.95 8.9H1.483C.665 8.9 0 9.565 0 10.383v62.3c0 .819.665 1.483 1.483 1.483H48.95c.819 0 1.483-.664 1.483-1.483v-62.3c0-.818-.664-1.483-1.483-1.483zm-1.483 62.3h-44.5V11.867h44.5V71.2z"/>
</svg>
