<svg xmlns="http://www.w3.org/2000/svg" width="68" height="89" fill="none" viewBox="0 0 68 89">
    <path fill="#FF8400" d="M33.714 0C15.095.02.01 15.113 0 33.73c0 18.116 31.093 53.217 32.412 54.692a1.735 1.735 0 0 0 2.586 0C36.317 86.93 67.41 51.846 67.41 33.731 67.4 15.119 52.325.029 33.714 0zm0 84.622C27.779 77.682 3.47 48.55 3.47 33.714 3.47 17.01 17.01 3.47 33.714 3.47c16.703 0 30.243 13.54 30.243 30.244 0 14.835-24.31 44.002-30.243 50.908z"/>
    <path fill="#FF8400" d="M34.324 16.918c-10.09.01-18.263 8.197-18.254 18.288.01 10.09 8.198 18.263 18.289 18.253 10.084-.01 18.253-8.187 18.253-18.27-.019-10.09-8.199-18.262-18.288-18.271zm0 33.089c-8.174 0-14.8-6.627-14.8-14.801s6.626-14.8 14.8-14.8 14.8 6.626 14.8 14.8c-.009 8.17-6.63 14.79-14.8 14.8z"/>
</svg>
