<svg xmlns="http://www.w3.org/2000/svg" width="96" height="89" fill="none" viewBox="0 0 96 89">
    <path fill="#FF8400" d="M95.252 36.867L83 28.743V1.589A1.59 1.59 0 0 0 81.409 0H14.552a1.59 1.59 0 0 0-1.59 1.59v27.155L.713 36.867A1.587 1.587 0 0 0 0 38.191v49.22C0 88.288.712 89 1.59 89h92.784a1.59 1.59 0 0 0 1.59-1.59V38.192c0-.553-.283-1.04-.712-1.324zm-82.29 5.558l-4.984-2.644h4.985v2.644zM3.18 40.833l36.55 19.389-36.55 24.227V40.833zM47.98 58.565l41.12 27.256H6.861l41.12-27.256zm8.253 1.657l36.55-19.389V84.45l-36.55-24.228zM83 39.78h4.987L83 42.426v-2.645zM89.1 36.6H83v-4.044l6.101 4.045zM79.82 3.18v40.933L53.219 58.223l-4.36-2.89a1.59 1.59 0 0 0-1.756 0l-4.36 2.89L16.143 44.11V3.18H79.82zM12.963 36.602h-6.1l6.1-4.043v4.043z"/>
    <path fill="#FF8400" d="M47.975 41.798h12.663a1.59 1.59 0 0 0 0-3.178H47.975c-6.106 0-11.074-4.968-11.074-11.074v-.469c0-6.106 4.968-11.073 11.074-11.073s11.073 4.967 11.073 11.073v1.173a2.4 2.4 0 0 1-2.397 2.397 2.4 2.4 0 0 1-2.397-2.397v-2.228a6.873 6.873 0 0 0-6.866-6.866 6.873 6.873 0 0 0-6.865 6.866 6.873 6.873 0 0 0 6.865 6.865 6.834 6.834 0 0 0 4.523-1.706 5.576 5.576 0 0 0 4.74 2.644 5.582 5.582 0 0 0 5.576-5.576v-1.172c0-7.859-6.394-14.252-14.252-14.252-7.859 0-14.252 6.393-14.252 14.252v.469c0 7.859 6.393 14.252 14.252 14.252zm-.587-12.09a3.69 3.69 0 0 1-3.686-3.686 3.691 3.691 0 0 1 3.686-3.687 3.691 3.691 0 0 1 3.687 3.687 3.69 3.69 0 0 1-3.687 3.687z"/>
</svg>
