<svg xmlns="http://www.w3.org/2000/svg" width="64" height="64" fill="none" viewBox="0 0 64 64">
    <g fill="#000" clip-path="url(#a)">
        <path d="M36.204 48.356a5.95 5.95 0 0 1-8.405 0 1.215 1.215 0 0 0-1.717 1.718 8.346 8.346 0 0 0 5.92 2.448 8.346 8.346 0 0 0 5.92-2.448 1.214 1.214 0 1 0-1.718-1.718z"/>
        <path d="M59.486 60.405c-2.845-3.15-2.965-11.178-2.629-19.484a6.358 6.358 0 0 0 .432-8.845c.414-8.472.633-14.137-2.054-19.369-1.833-3.57-4.8-6.552-8.817-8.864A28.857 28.857 0 0 0 30.973.019c-4.763.17-9.197 2.389-12.255 6.112-3.949.235-7.54 2.384-9.473 5.705-.166.285-.327.578-.477.871-2.689 5.234-2.47 10.9-2.056 19.37a6.358 6.358 0 0 0 .432 8.843c.337 8.307.216 16.335-2.629 19.486a1.215 1.215 0 0 0 .472 1.95 25.63 25.63 0 0 0 9.103 1.642c2.908 0 5.49-.467 7.516-1.015 3.521-.952 6.005-2.289 6.852-2.782a21.768 21.768 0 0 0 7.085 0c.848.494 3.331 1.83 6.852 2.782A28.563 28.563 0 0 0 49.872 64c3.777 0 6.89-.794 9.142-1.645a1.214 1.214 0 0 0 .472-1.95zm-5.775-21.623v-6.03V32.52a3.954 3.954 0 0 1 2.733 3.755 3.954 3.954 0 0 1-2.77 3.768c.023-.417.037-.837.037-1.26zM10.929 13.817c.13-.255.27-.511.415-.76 1.6-2.749 4.66-4.48 7.985-4.518h.017c.369-.008.714-.183.939-.476 2.62-3.419 6.548-5.466 10.775-5.617a26.435 26.435 0 0 1 14.146 3.502c3.605 2.075 6.252 4.723 7.868 7.869 2.151 4.187 2.215 8.742 1.862 16.568-.39-.163-.8-.287-1.225-.369v-1.235a1.215 1.215 0 0 0-2.43 0v2.758c-16.73.18-25.786-7.88-28.203-10.4a1.214 1.214 0 0 0-2 .378c-1.765 4.293-4.848 6.54-9.704 7.069a1.214 1.214 0 0 0-1.083 1.207v.223a6.327 6.327 0 0 0-1.226.37c-.353-7.825-.289-12.38 1.864-16.569zm-.6 26.226a3.954 3.954 0 0 1-2.77-3.768 3.953 3.953 0 0 1 2.732-3.755v6.262c0 .424.014.844.038 1.261zM7.362 60.597c2.166-3.697 2.541-9.842 2.266-18.228.322.1.656.173.998.22 1.381 7.777 6.918 14.135 14.224 16.692-3.514 1.512-10.165 3.515-17.488 1.316zm24.64-2.534c-10.632 0-19.282-8.65-19.282-19.281v-7.929c4.556-.75 7.798-2.992 9.854-6.818 1.75 1.596 4.58 3.786 8.567 5.705 5.995 2.885 12.766 4.308 20.14 4.229v4.813c0 10.632-8.648 19.28-19.28 19.28zm11.107 2.597a28.728 28.728 0 0 1-3.962-1.378c7.31-2.555 12.848-8.914 14.23-16.693a6.32 6.32 0 0 0 .996-.22c-.275 8.387.1 14.532 2.267 18.229-4.289 1.296-8.833 1.318-13.53.062z"/>
        <path d="M17.486 35.183a1.214 1.214 0 1 0 1.717 1.717 2 2 0 0 1 2.824 0 1.21 1.21 0 0 0 1.718 0 1.214 1.214 0 0 0 0-1.717 4.43 4.43 0 0 0-6.26 0zM46.517 36.9a1.214 1.214 0 0 0 0-1.717 4.43 4.43 0 0 0-6.258 0 1.214 1.214 0 1 0 1.717 1.717 1.999 1.999 0 0 1 2.824 0 1.21 1.21 0 0 0 1.717 0z"/>
    </g>
    <defs>
        <clipPath id="a">
            <path fill="#fff" d="M0 0h64v64H0z"/>
        </clipPath>
    </defs>
</svg>
